<svg width="16" height="16" viewBox="0 0 16 16" fill="none" xmlns="http://www.w3.org/2000/svg">
<path d="M16 8C16 12.4182 12.4182 16 8 16C3.58175 16 0 12.4182 0 8C0 3.58175 3.58175 0 8 0C12.4182 0 16 3.58175 16 8Z" fill="white"/>
<path d="M11.7606 10.3921L8.41201 8.00008L11.7606 5.60806C11.9109 5.50078 12.0002 5.32751 12.0002 5.14294C12.0002 4.95837 11.9109 4.7851 11.7606 4.67782L7.76065 1.82067C7.5864 1.69637 7.35733 1.67977 7.16704 1.77771C6.97675 1.87564 6.85719 2.07179 6.85719 2.2858V6.62062L4.9755 4.73892C4.75131 4.5224 4.39486 4.52547 4.17444 4.7459C3.95401 4.96632 3.95094 5.32277 4.16746 5.54696L6.62058 8.00008L4.16746 10.4532C4.01889 10.5968 3.95931 10.8091 4.01163 11.009C4.06395 11.2088 4.21992 11.3648 4.41969 11.4171C4.61961 11.4694 4.83194 11.4098 4.9755 11.2612L6.85719 9.37955V13.7144C6.85719 13.9284 6.97675 14.1245 7.16704 14.2225C7.35733 14.3204 7.5864 14.3038 7.76065 14.1795L11.7606 11.3223C11.9109 11.2151 12.0002 11.0418 12.0002 10.8572C12.0002 10.6727 11.9109 10.4994 11.7606 10.3921ZM8.00004 3.39615L10.4452 5.14294L8.00004 6.88973V3.39615ZM8.00004 12.604V9.11043L10.4452 10.8572L8.00004 12.604Z" fill="black"/>
</svg>
