<svg width="16" height="16" viewBox="0 0 16 16" fill="none" xmlns="http://www.w3.org/2000/svg">
<path d="M16 8C16 12.4182 12.4182 16 8 16C3.58175 16 0 12.4182 0 8C0 3.58175 3.58175 0 8 0C12.4182 0 16 3.58175 16 8Z" fill="#787676"/>
<path d="M11.7606 10.3921L8.41195 8.00008L11.7606 5.60806C11.9108 5.50078 12.0001 5.32751 12.0001 5.14294C12.0001 4.95837 11.9108 4.7851 11.7606 4.67782L7.76059 1.82067C7.58634 1.69637 7.35727 1.67977 7.16698 1.77771C6.97669 1.87564 6.85713 2.07179 6.85713 2.2858V6.62062L4.97544 4.73892C4.75124 4.5224 4.3948 4.52547 4.17438 4.7459C3.95395 4.96632 3.95088 5.32277 4.1674 5.54696L6.62052 8.00008L4.1674 10.4532C4.01882 10.5968 3.95925 10.8091 4.01157 11.009C4.06389 11.2088 4.21986 11.3648 4.41963 11.4171C4.61955 11.4694 4.83188 11.4098 4.97544 11.2612L6.85713 9.37955V13.7144C6.85713 13.9284 6.97669 14.1245 7.16698 14.2225C7.35727 14.3204 7.58634 14.3038 7.76059 14.1795L11.7606 11.3223C11.9108 11.2151 12.0001 11.0418 12.0001 10.8572C12.0001 10.6727 11.9108 10.4994 11.7606 10.3921ZM7.99998 3.39615L10.4452 5.14294L7.99998 6.88973V3.39615ZM7.99998 12.604V9.11043L10.4452 10.8572L7.99998 12.604Z" fill="white"/>
</svg>
