<svg width="24" height="24" viewBox="0 0 24 24" fill="none" xmlns="http://www.w3.org/2000/svg">
<path d="M19.6875 6.79688H2.3125C2.125 6.79688 2 6.92187 2 7.10937V9.01562C2 9.20312 2.125 9.32812 2.3125 9.32812H3.1875V16.8906C3.1875 17.0781 3.3125 17.2031 3.5 17.2031H4.84375C5.03125 17.2031 5.15625 17.0781 5.15625 16.8906V9.32812H10.4688V11.0469V13.0781C10.4688 13.2656 10.5938 13.3906 10.7812 13.3906H16.8125V16.8906C16.8125 17.0781 16.9375 17.2031 17.125 17.2031H18.5C18.6875 17.2031 18.8125 17.0781 18.8125 16.8906V9.32812H19.6875C19.875 9.32812 20 9.20312 20 9.01562V7.10937C20 6.92187 19.8438 6.79688 19.6875 6.79688ZM4.53125 16.5469H3.8125V9.32812H4.53125V16.5469ZM16.8125 12.7656H11.0938V11.3594H13.25V11.6719H14.6562V11.3594H16.8125V12.7656ZM16.8125 10.7344H11.0938V9.32812H13.25V9.67188H14.6562V9.64062V9.29687H16.8125V10.7344ZM18.1875 16.5469H17.4688V13.0781V11.0469V9.32812H18.1875V16.5469ZM18.5 8.70312H17.1562H10.7812H4.84375H3.5H2.625V7.42187H19.3438V8.70312H18.5Z" fill="white"/>
</svg>
