<svg width="41" height="41" viewBox="0 0 41 41" fill="none" xmlns="http://www.w3.org/2000/svg">
<path d="M20.5 8.5C13.8726 8.5 8.5 13.8726 8.5 20.5C8.5 27.1274 13.8726 32.5 20.5 32.5C27.1274 32.5 32.5 27.1274 32.5 20.5C32.4925 13.8757 27.1243 8.5075 20.5 8.5ZM20.5 31.7C14.3144 31.7 9.3 26.6856 9.3 20.5C9.3 14.3144 14.3144 9.3 20.5 9.3C26.6856 9.3 31.7 14.3144 31.7 20.5C31.693 26.6826 26.6826 31.693 20.5 31.7Z" fill="black"/>
<path d="M18.2196 19.9046L16.8468 17.4998C16.7752 17.3758 16.6428 17.2995 16.4996 17.2998H13.2996C12.6368 17.2998 12.0996 17.8371 12.0996 18.4998V22.4998C12.0996 23.1626 12.6368 23.6998 13.2996 23.6998H16.4996C16.6428 23.7001 16.7752 23.6238 16.8468 23.4998L18.2196 21.095C18.4292 20.7259 18.4292 20.2737 18.2196 19.9046ZM17.5252 20.6998L16.2676 22.8998H13.2996C13.0787 22.8998 12.8996 22.7207 12.8996 22.4998V18.4998C12.8996 18.2789 13.0787 18.0998 13.2996 18.0998H16.2676L17.5252 20.2998C17.5966 20.4236 17.5966 20.5761 17.5252 20.6998Z" fill="black"/>
<path d="M27.7003 17.2998H24.5003C24.3571 17.2995 24.2247 17.3758 24.1531 17.4998L22.7803 19.9046C22.5706 20.2737 22.5706 20.7259 22.7803 21.095L24.1531 23.4998C24.2247 23.6238 24.3571 23.7001 24.5003 23.6998H27.7003C28.363 23.6998 28.9003 23.1626 28.9003 22.4998V18.4998C28.9003 17.8371 28.363 17.2998 27.7003 17.2998ZM28.1003 22.4998C28.1003 22.7207 27.9212 22.8998 27.7003 22.8998H24.7323L23.4747 20.6998C23.4044 20.5769 23.4044 20.426 23.4747 20.303L24.7323 18.0998H27.7003C27.9212 18.0998 28.1003 18.2789 28.1003 18.4998V22.4998Z" fill="black"/>
<path d="M17.4998 16.8473L19.9046 18.2201C20.2737 18.4297 20.7259 18.4297 21.095 18.2201L23.4998 16.8473C23.6238 16.7757 23.7001 16.6433 23.6998 16.5001V13.3001C23.6998 12.6373 23.1625 12.1001 22.4998 12.1001H18.4998C17.837 12.1001 17.2998 12.6373 17.2998 13.3001V16.5001C17.2995 16.6433 17.3758 16.7757 17.4998 16.8473ZM18.0998 13.3001C18.0998 13.0792 18.2789 12.9001 18.4998 12.9001H22.4998C22.7207 12.9001 22.8998 13.0792 22.8998 13.3001V16.2681L20.6998 17.5257C20.5767 17.5953 20.4261 17.5953 20.303 17.5257L18.0998 16.2681V13.3001Z" fill="black"/>
<path d="M23.4998 24.1529L21.095 22.7801C20.726 22.57 20.2736 22.57 19.9046 22.7801L17.4998 24.1529C17.3758 24.2245 17.2995 24.3569 17.2998 24.5001V27.7001C17.2998 28.3629 17.837 28.9001 18.4998 28.9001H22.4998C23.1625 28.9001 23.6998 28.3629 23.6998 27.7001V24.5001C23.7001 24.3569 23.6238 24.2245 23.4998 24.1529ZM22.8998 27.7001C22.8998 27.921 22.7207 28.1001 22.4998 28.1001H18.4998C18.2789 28.1001 18.0998 27.921 18.0998 27.7001V24.7321L20.2998 23.4745C20.4229 23.4049 20.5735 23.4049 20.6966 23.4745L22.8998 24.7321V27.7001Z" fill="black"/>
</svg>
