<svg width="144" height="128" viewBox="0 0 144 128" fill="none" xmlns="http://www.w3.org/2000/svg">
<mask id="mask0" mask-type="alpha" maskUnits="userSpaceOnUse" x="39" y="0" width="105" height="105">
<path fill-rule="evenodd" clip-rule="evenodd" d="M39.5522 0H143.553V104.001H39.5522V0Z" fill="white"/>
</mask>
<g mask="url(#mask0)">
<path fill-rule="evenodd" clip-rule="evenodd" d="M68.6352 98.665C42.863 86.0083 32.2311 54.8558 44.8872 29.0836C57.5446 3.31067 88.6978 -7.32191 114.47 5.33551C140.242 17.9923 150.874 49.1447 138.217 74.917C125.561 100.69 94.4074 111.322 68.6352 98.665Z" fill="#DDDDDD"/>
</g>
<mask id="mask1" mask-type="alpha" maskUnits="userSpaceOnUse" x="0" y="40" width="80" height="80">
<path fill-rule="evenodd" clip-rule="evenodd" d="M0 40.5404H79.1047V119.645H0V40.5404Z" fill="white"/>
</mask>
<g mask="url(#mask1)">
<path fill-rule="evenodd" clip-rule="evenodd" d="M22.1213 115.587C2.51816 105.959 -5.5696 82.2644 4.05772 62.6613C13.6844 43.0582 37.3807 34.9718 56.9838 44.5984C76.5862 54.2258 84.6733 77.9207 75.0467 97.5239C65.4194 117.127 41.7244 125.214 22.1213 115.587Z" fill="#DDDDDD"/>
</g>
<path fill-rule="evenodd" clip-rule="evenodd" d="M31.9551 66.1252V121.843C31.9551 125.072 34.5734 127.691 37.8029 127.691H103.057C106.287 127.691 108.905 125.072 108.905 121.843V66.1252H31.9551Z" fill="white"/>
<path fill-rule="evenodd" clip-rule="evenodd" d="M108.905 66.125V36.7434C108.905 33.5132 106.287 30.8949 103.057 30.8949H37.8029C34.5734 30.8949 31.9551 33.5132 31.9551 36.7434V66.125H108.905Z" fill="#1174DC"/>
<mask id="mask2" mask-type="alpha" maskUnits="userSpaceOnUse" x="18" y="127" width="105" height="1">
<path fill-rule="evenodd" clip-rule="evenodd" d="M18.3564 127.35H122.504V127.969H18.3564V127.35Z" fill="white"/>
</mask>
<g mask="url(#mask2)">
<path fill-rule="evenodd" clip-rule="evenodd" d="M122.226 127.969H18.6341C18.4803 127.969 18.3564 127.844 18.3564 127.691C18.3564 127.537 18.4803 127.413 18.6341 127.413H122.226C122.38 127.413 122.504 127.537 122.504 127.691C122.504 127.844 122.38 127.969 122.226 127.969Z" fill="#1174DC"/>
</g>
<path fill-rule="evenodd" clip-rule="evenodd" d="M55.7688 83.5635H41.0396C40.8865 83.5635 40.7612 83.439 40.7612 83.2852C40.7612 83.1313 40.8865 83.0075 41.0396 83.0075H55.7688C55.9226 83.0075 56.0465 83.1313 56.0465 83.2852C56.0465 83.439 55.9226 83.5635 55.7688 83.5635Z" fill="#1174DC"/>
<path fill-rule="evenodd" clip-rule="evenodd" d="M89.4147 83.5635H53.4618C53.308 83.5635 53.1841 83.439 53.1841 83.2852C53.1841 83.1313 53.308 83.0075 53.4618 83.0075H89.4147C89.5685 83.0075 89.6923 83.1313 89.6923 83.2852C89.6923 83.439 89.5685 83.5635 89.4147 83.5635Z" fill="#1174DC"/>
<path fill-rule="evenodd" clip-rule="evenodd" d="M103.557 75.7496V79.7775C103.557 81.7152 101.986 83.2861 100.049 83.2861H94.8359" fill="white"/>
<path fill-rule="evenodd" clip-rule="evenodd" d="M100.05 83.5635H94.836C94.6822 83.5635 94.5576 83.439 94.5576 83.2852C94.5576 83.1314 94.6822 83.0075 94.836 83.0075H100.05C101.831 83.0075 103.28 81.5585 103.28 79.7773V75.7494C103.28 75.5956 103.404 75.4703 103.557 75.4703C103.712 75.4703 103.836 75.5956 103.836 75.7494V79.7773C103.836 81.8654 102.138 83.5635 100.05 83.5635Z" fill="#1174DC"/>
<path fill-rule="evenodd" clip-rule="evenodd" d="M37.5312 79.7777V55.5096C37.5312 53.5712 39.1021 52.0004 41.0398 52.0004H103.558V70.0006" fill="white"/>
<path fill-rule="evenodd" clip-rule="evenodd" d="M37.5311 80.0557C37.3773 80.0557 37.2534 79.9305 37.2534 79.7774V55.5086C37.2534 53.4205 38.9516 51.7217 41.0397 51.7217H103.558C103.712 51.7217 103.836 51.8469 103.836 52.0001V70.001C103.836 70.1541 103.712 70.2787 103.558 70.2787C103.404 70.2787 103.28 70.1541 103.28 70.001V52.2784H41.0397C39.2585 52.2784 37.8095 53.7275 37.8095 55.5086V79.7774C37.8095 79.9305 37.6856 80.0557 37.5311 80.0557Z" fill="#1174DC"/>
<path fill-rule="evenodd" clip-rule="evenodd" d="M41.0398 83.2862C39.1014 83.2862 37.5312 81.7146 37.5312 79.7776L41.0398 83.2862Z" fill="white"/>
<path fill-rule="evenodd" clip-rule="evenodd" d="M41.0397 83.5641C38.9516 83.5641 37.2534 81.866 37.2534 79.7778C37.2534 79.624 37.3773 79.4988 37.5311 79.4988C37.6849 79.4988 37.8095 79.624 37.8095 79.7778C37.8095 81.559 39.2585 83.008 41.0397 83.008C41.1935 83.008 41.3181 83.1319 41.3181 83.2857C41.3181 83.4395 41.1935 83.5641 41.0397 83.5641Z" fill="#1174DC"/>
<path fill-rule="evenodd" clip-rule="evenodd" d="M67.8618 90.9385H41.0401C40.8863 90.9385 40.7617 90.8133 40.7617 90.6602C40.7617 90.5063 40.8863 90.3825 41.0401 90.3825H67.8618C68.0156 90.3825 68.1395 90.5063 68.1395 90.6602C68.1395 90.8133 68.0156 90.9385 67.8618 90.9385Z" fill="#1174DC"/>
<path fill-rule="evenodd" clip-rule="evenodd" d="M37.5312 110.879V94.1688C37.5312 92.2318 39.1021 90.6609 41.0398 90.6609" fill="white"/>
<path fill-rule="evenodd" clip-rule="evenodd" d="M37.5311 111.157C37.3773 111.157 37.2534 111.032 37.2534 110.879V94.1688C37.2534 92.0807 38.9516 90.3826 41.0397 90.3826C41.1935 90.3826 41.3181 90.5064 41.3181 90.6603C41.3181 90.8134 41.1935 90.9386 41.0397 90.9386C39.2585 90.9386 37.8095 92.3877 37.8095 94.1688V110.879C37.8095 111.032 37.6856 111.157 37.5311 111.157Z" fill="#1174DC"/>
<path fill-rule="evenodd" clip-rule="evenodd" d="M82.4478 121.946H41.0398C39.1014 121.946 37.5312 120.375 37.5312 118.438V116.339" fill="white"/>
<path fill-rule="evenodd" clip-rule="evenodd" d="M82.4484 122.224H41.0397C38.9516 122.224 37.2534 120.525 37.2534 118.437V116.339C37.2534 116.186 37.3773 116.061 37.5311 116.061C37.6849 116.061 37.8095 116.186 37.8095 116.339V118.437C37.8095 120.218 39.2585 121.667 41.0397 121.667H82.4484C82.6022 121.667 82.7261 121.792 82.7261 121.946C82.7261 122.099 82.6022 122.224 82.4484 122.224Z" fill="#1174DC"/>
<path fill-rule="evenodd" clip-rule="evenodd" d="M61.7983 90.6604H103.557V118.438C103.557 120.375 101.987 121.946 100.049 121.946H71.4379" fill="white"/>
<path fill-rule="evenodd" clip-rule="evenodd" d="M100.05 122.224H71.4384C71.2846 122.224 71.1601 122.099 71.1601 121.946C71.1601 121.792 71.2846 121.667 71.4384 121.667H100.05C101.831 121.667 103.28 120.218 103.28 118.437V90.9381H61.7982C61.6444 90.9381 61.5205 90.8136 61.5205 90.6598C61.5205 90.506 61.6444 90.3821 61.7982 90.3821H103.557C103.712 90.3821 103.836 90.506 103.836 90.6598V118.437C103.836 120.525 102.138 122.224 100.05 122.224Z" fill="#1174DC"/>
<path fill-rule="evenodd" clip-rule="evenodd" d="M51.845 58.1673C53.0197 58.172 53.9746 59.1365 53.9664 60.3085C53.9583 61.4832 52.9931 62.4402 51.8245 62.434C50.6396 62.4272 49.6908 61.4669 49.6983 60.2799C49.7044 59.1051 50.6627 58.1625 51.845 58.1673Z" fill="#1174DC"/>
<path fill-rule="evenodd" clip-rule="evenodd" d="M50.1969 64.8684L49.7511 67.3431C49.6136 68.1068 48.9486 68.6622 48.172 68.6622H45.0793C44.1938 68.6622 43.4751 69.3809 43.4751 70.2671V75.3213C43.4751 76.2075 44.1938 76.9255 45.0793 76.9255C45.9655 76.9255 46.6835 76.2075 46.6835 75.3213V72.6703C46.6835 72.2286 47.0415 71.8713 47.4832 71.8713H50.8543C51.6302 71.8713 52.2959 71.3152 52.4334 70.5516L53.3549 65.4374C53.5319 64.4532 52.7757 63.5487 51.7759 63.5487C51 63.5487 50.3343 64.1041 50.1969 64.8684Z" fill="#1174DC"/>
<mask id="mask3" mask-type="alpha" maskUnits="userSpaceOnUse" x="0" y="0" width="144" height="128">
<path fill-rule="evenodd" clip-rule="evenodd" d="M0 127.969H143.553V0H0V127.969Z" fill="white"/>
</mask>
<g mask="url(#mask3)">
<path fill-rule="evenodd" clip-rule="evenodd" d="M61.7983 61.693H85.7819V59.2339H61.7983V61.693Z" fill="#F2F2F2"/>
<path fill-rule="evenodd" clip-rule="evenodd" d="M61.7983 68.5843H98.1609V66.1252H61.7983V68.5843Z" fill="#F2F2F2"/>
<path fill-rule="evenodd" clip-rule="evenodd" d="M61.7983 75.4758H86.6442V73.0167H61.7983V75.4758Z" fill="#F2F2F2"/>
<path fill-rule="evenodd" clip-rule="evenodd" d="M61.7983 100.641H80.6684V98.1823H61.7983V100.641Z" fill="#F2F2F2"/>
<path fill-rule="evenodd" clip-rule="evenodd" d="M61.7983 107.533H89.4144V105.074H61.7983V107.533Z" fill="#F2F2F2"/>
<path fill-rule="evenodd" clip-rule="evenodd" d="M61.7983 114.425H80.6684V111.965H61.7983V114.425Z" fill="#F2F2F2"/>
<path fill-rule="evenodd" clip-rule="evenodd" d="M37.803 127.969C34.4251 127.969 31.6768 125.22 31.6768 121.842C31.6768 121.689 31.802 121.564 31.9551 121.564C32.1089 121.564 32.2335 121.689 32.2335 121.842C32.2335 124.914 34.732 127.413 37.803 127.413C37.9568 127.413 38.0814 127.536 38.0814 127.69C38.0814 127.843 37.9568 127.969 37.803 127.969Z" fill="#1174DC"/>
<path fill-rule="evenodd" clip-rule="evenodd" d="M103.057 127.969H91.5528C91.399 127.969 91.2744 127.844 91.2744 127.69C91.2744 127.537 91.399 127.413 91.5528 127.413H103.057C106.128 127.413 108.627 124.914 108.627 121.843V114.625C108.627 114.472 108.751 114.346 108.905 114.346C109.058 114.346 109.183 114.472 109.183 114.625V121.843C109.183 125.221 106.435 127.969 103.057 127.969Z" fill="#1174DC"/>
<path fill-rule="evenodd" clip-rule="evenodd" d="M108.904 106.581C108.751 106.581 108.627 106.456 108.627 106.303V90.6593C108.627 90.5061 108.751 90.3816 108.904 90.3816C109.058 90.3816 109.183 90.5061 109.183 90.6593V106.303C109.183 106.456 109.058 106.581 108.904 106.581Z" fill="#1174DC"/>
<path fill-rule="evenodd" clip-rule="evenodd" d="M102 43.5948C100.361 45.2337 97.7042 45.2337 96.0646 43.5948C94.4264 41.9559 94.4264 39.2987 96.0646 37.6591C97.7042 36.0202 100.361 36.0202 102 37.6591C103.639 39.2987 103.639 41.9559 102 43.5948Z" fill="white"/>
<path fill-rule="evenodd" clip-rule="evenodd" d="M93.092 48.0882C92.8627 48.0882 92.6326 48.0038 92.4543 47.8336C92.082 47.4811 92.0664 46.8944 92.4196 46.5221L97.6651 40.9935C98.017 40.6218 98.605 40.6069 98.976 40.9587C99.3476 41.312 99.3632 41.8987 99.01 42.2703L93.7645 47.7989C93.5828 47.9909 93.3371 48.0882 93.092 48.0882Z" fill="white"/>
<path fill-rule="evenodd" clip-rule="evenodd" d="M99.0323 36.8035C98.0529 36.8035 97.0728 37.1765 96.3269 37.9225C94.8356 39.4137 94.8356 41.8408 96.3269 43.3334C97.8195 44.8239 100.245 44.8239 101.738 43.3334C103.23 41.8408 103.23 39.4137 101.738 37.9225C100.992 37.1765 100.012 36.8035 99.0323 36.8035ZM99.0322 45.193C97.8622 45.193 96.6929 44.7486 95.8027 43.8577C94.0215 42.0765 94.0215 39.1784 95.8027 37.3973C97.5832 35.6168 100.482 35.6168 102.262 37.3973C104.043 39.1784 104.043 42.0765 102.262 43.8577C101.372 44.7486 100.202 45.193 99.0322 45.193Z" fill="#1174DC"/>
<path fill-rule="evenodd" clip-rule="evenodd" d="M48.8608 96.2112C50.0348 96.2153 50.9904 97.1804 50.9822 98.3524C50.9734 99.5272 50.009 100.483 48.8403 100.477C47.6554 100.47 46.7066 99.5101 46.7134 98.3238C46.7202 97.1484 47.6785 96.2064 48.8608 96.2112Z" fill="#1174DC"/>
<path fill-rule="evenodd" clip-rule="evenodd" d="M48.8476 116.395C47.5007 116.395 46.4097 115.303 46.4097 113.956V104.667C46.4097 103.319 47.5007 102.228 48.8476 102.228C50.1946 102.228 51.2863 103.319 51.2863 104.667V113.956C51.2863 115.303 50.1946 116.395 48.8476 116.395Z" fill="#1174DC"/>
<path fill-rule="evenodd" clip-rule="evenodd" d="M52.9858 104.465C53.2294 104.847 53.6521 105.079 54.1061 105.079H56.6223V106.779H54.362C53.1117 106.779 51.9288 106.21 51.1481 105.234L48.7476 102.231C50.4566 102.172 52.0683 103.022 52.9858 104.465Z" fill="#1174DC"/>
</g>
</svg>
