<svg width="152" height="151" viewBox="0 0 152 151" fill="none" xmlns="http://www.w3.org/2000/svg">
<path d="M51.4 72.5998H38V73.0998L37.4 72.4998H38L38.0999 71.2998H37.5999L38.2 70.6998V71.2998L66 71.4998L65.8 70.9998L66.4 71.5998H65.9L66 72.6998H66.5999C66.8999 72.6998 67.0999 72.9998 67.0999 73.2998C67.1018 73.4029 67.0747 73.5044 67.0217 73.5928C66.9686 73.6812 66.8918 73.753 66.8 73.7998C67 73.6998 67.1999 73.4998 67.0999 73.2998L66.9 70.9998C66.9 70.6998 66.7 70.4998 66.3 70.3998L48.5 70.2998C48.8 70.4998 48.5 70.9998 48.2 70.7998C47.9 70.5998 47.6 70.3998 47.2 70.2998H40C39.9 70.3998 39.9 70.3998 39.9 70.4998C39.7 70.7998 39.3 70.5998 39.4 70.2998H37.5C37.2 70.2998 37 70.4998 36.9 70.8998L36.7 73.1998C36.7 73.4998 36.8999 73.6998 37.2999 73.7998H50.7V73.4998C50.8 72.9998 51 72.6998 51.4 72.5998V72.5998Z" fill="black"/>
<path d="M65.8 71L65.9 71.5H66.4L65.8 71ZM66 73.2V72.6H51.9C52.3 72.7 52.5 73 52.5 73.4V73.7H66.6C66.7 73.7 66.8 73.7 66.8 73.6C66.5 73.8 66.1 73.6 66 73.2C66 73.2 66 73.3 66 73.2Z" fill="black"/>
<path d="M37.9001 73.1998V72.6998H37.3L37.9001 73.1998ZM66.6 72.6998H66L66.1 73.2998C66.2 73.5998 66.5001 73.8998 66.8001 73.7998H66.9001C67.2001 73.6998 67.3 73.2998 67.1 72.9998C67.0532 72.908 66.9815 72.8311 66.8931 72.7781C66.8047 72.725 66.7031 72.6979 66.6 72.6998V72.6998ZM37.6 71.3998H38.1V70.7998L37.6 71.3998ZM52.4001 73.6998H50.7001L50.9001 114.2H52.6L52.4001 73.6998Z" fill="black"/>
<path d="M52.4 73.4001C52.4 73.0001 52.2 72.7001 51.8 72.6001H51.3C50.9 72.7001 50.7 73.0001 50.7 73.4001V73.7001H52.4V73.4001ZM67.7 114.3C62.7 114.3 57.7 114.3 52.6 114.2V114.4C52.6 114.8 52.2 115.2 51.8 115.2C51.4 115.2 51 114.8 51 114.4V114.2C46.3 114.1 41.5 114.1 36.8 114.2C36.4 114.2 36 114.6 36 115C36 115.4 36.4 115.8 36.8 115.8C47.1 115.5 57.4 116 67.7 115.9C68.2 115.9 68.5 115.5 68.5 115.1C68.5 114.7 68.2 114.4 67.7 114.3V114.3Z" fill="black"/>
<path d="M52.7 114.4V114.2H51V114.4C51 114.8 51.4 115.2 51.8 115.2C52.3 115.2 52.6 114.8 52.7 114.4V114.4ZM42.5 65.1998C42.4 65.1998 42.3 65.2998 42.3 65.2998C42.3 65.2998 42.1 65.3998 42 65.2998V69.0998H42.6L42.5 65.1998V65.1998ZM42.4 44.4998L42 45.3998V64.3998C42.1 64.5998 42.2 64.7998 42.3 64.8998C42.3 64.7998 42.4 64.6998 42.5 64.6998V43.5998C42.4 43.5998 42.3 43.4998 42.2 43.4998C41.9 43.3998 42 42.8998 42.3 42.9998H42.4C42.3 42.8998 42.2 42.8998 42.1 42.9998C42 43.0998 42 43.0998 42 43.1998V44.0998C42.1 43.9998 42.3 43.9998 42.4 44.1998C42.5 44.2998 42.5 44.3998 42.4 44.4998V44.4998Z" fill="black"/>
<path d="M39.6 54.8002C39.4 51.4002 40.6 48.4002 42 45.4002V44.2002L41.9 44.3002C40.3 47.7002 38.9 51.0002 39 54.9002C39.2 58.4002 39.9 62.4002 41.8 65.4002L41.9 65.5002V64.5002C40.5 61.4002 39.7 58.1002 39.6 54.8002Z" fill="black"/>
<path d="M42.4 65.0999C42.4 65.0999 42.3 64.9999 42.3 64.8999L42 64.3999V65.3999H42.3C42.3 65.2999 42.4 65.1999 42.4 65.0999ZM42.4 44.4999C42.5 44.3999 42.4 44.1999 42.2 44.0999H42V45.2999L42.4 44.4999V44.4999ZM42.6 43.1999V43.5999C42.8 43.5999 43.1 43.6999 43.3 43.6999V43.5999C43.3 43.3999 43.4 43.2999 43.6 43.2999H43.8C43.8 43.1999 43.7 43.1999 43.6 43.1999H42.6C42.6 43.0999 42.5 42.9999 42.6 43.1999Z" fill="black"/>
<path d="M42.1999 43.5L42.4999 43.6V43.2C42.4999 43.1 42.4999 43 42.3999 43H42.2999C41.9999 42.9 41.8999 43.4 42.1999 43.5V43.5ZM43.4999 43.7H43.2999C43.8999 47.3 44.0999 50.9 43.7999 54.5L43.3999 62C43.3999 62.1 43.1999 65.1 42.7999 64.8C42.6999 64.7 42.5999 64.7 42.5999 64.7V65.3C44.3999 66.5 44.0999 59.2 44.1999 58.4C44.4999 53.4 44.7999 48.4 43.7999 43.4C43.7999 43.3 43.6999 43.3 43.6999 43.2C43.7999 43.3 43.7999 43.4 43.6999 43.5C43.5999 43.6 43.5999 43.7 43.4999 43.7V43.7ZM42.2999 64.9C42.2999 64.9 42.2999 65 42.2999 64.9C42.3999 65 42.3999 65 42.3999 65.1L42.4999 65.2V64.6C42.3999 64.7 42.2999 64.8 42.2999 64.9Z" fill="black"/>
<path d="M42.3 65C42.3 65 42.3 64.9 42.3 65C42.4 65.1 42.4 65 42.3 65ZM43.2 43.5L43.4 43.6C43.5 43.6 43.6 43.5 43.6 43.4V43.1C43.5 43 43.3 43.1 43.2 43.2V43.5V43.5ZM42.3 69.6C42.2 69.6 42.2 69.6 42.1 69.5C42 69.4 42 69.4 42 69.3V69.1C41 69 40 69.4 39.5 70.2V70.3H40.1C40.7 69.8 41.5 69.5 42.3 69.6V69.6ZM42.3 69.6H44.1C45.2 69.6 46.3 69.9 47.3 70.3H48.5C46.8 69.3 44.9 68.9 43 69H42.6V69.2C42.6 69.5 42.5 69.6 42.3 69.6V69.6Z" fill="black"/>
<path d="M48.3 70.8999C48.6 71.0999 48.9 70.5999 48.6 70.3999H47.4L48.3 70.8999V70.8999ZM40 70.4999C40 70.3999 40.1 70.3999 40.1 70.2999H39.5C39.4 70.5999 39.8 70.7999 40 70.4999ZM42.3 69.5999C42.5 69.5999 42.6 69.4999 42.6 69.2999V69.0999H42V69.2999C42 69.3999 42 69.3999 42.1 69.4999C42.2 69.5999 42.2 69.5999 42.3 69.5999V69.5999ZM95.6 67.2999V67.0999L95.2 67.2999H95.6ZM94.3 72.5999V73.1999C94.8 73.0999 95.2 73.0999 95.7 73.1999V72.5999H94.3ZM85.9 38.7999C87.1217 39.0053 88.3254 39.3062 89.5 39.6999C90.9 40.1999 92.2 40.9999 93.2 41.9999C94.2 43.0999 94.7 44.4999 94.7 45.8999V46.9999L94.6 48.1999L94.5 50.5999L94.3 56.9999H95.7L95.8 50.6999L95.9 48.3999L96 47.1999V45.9999C96 45.1999 95.8 44.2999 95.5 43.4999C95.2 42.6999 94.7 41.9999 94.1 41.3999C92.9 40.1999 91.5 39.2999 89.9 38.7999C88.6 38.3999 87.3 37.9999 85.9 37.8999C85.9 38.0999 86 38.4999 85.9 38.7999V38.7999ZM84.3 52.8999C84.5 52.8999 84.7 52.5999 84.7 52.3999C84.7 52.1999 84.4 51.9999 84.2 51.9999L76.6 52.7999L76 52.9999H76.1C76.2553 53.0115 76.4013 53.0784 76.5114 53.1885C76.6216 53.2986 76.6885 53.4446 76.7 53.5999V53.6999L84.3 52.8999V52.8999ZM114.7 94.0999L115 95.7999L115.2 94.0999H114.7Z" fill="black"/>
<path d="M77.4001 38.6001H80.4001V38.5001C80.6001 38.2001 80.7001 37.9001 80.9001 37.6001H80.4001L77.1001 37.7001C77.2001 37.9001 77.3001 38.2001 77.4001 38.6001C77.4001 38.6001 77.4001 38.5001 77.4001 38.6001ZM75.8001 53.1001C75.0001 53.4001 74.1001 53.7001 73.3001 53.8001C72.8001 53.9001 72.8001 53.1001 73.2001 53.0001H70.2001C68.7001 53.0001 67.1001 52.8001 65.7001 52.4001C65.0001 52.2001 64.3001 51.9001 63.7001 51.5001C63.1063 51.093 62.6247 50.5427 62.3001 49.9001C61.6001 48.6001 61.3001 47.1001 61.5001 45.6001C61.6001 44.1001 62.1001 42.6001 62.8001 41.3001C63.0001 41.0001 63.2001 40.7001 63.5001 40.4001L63.7001 40.2001C63.8001 40.2001 63.8001 40.1001 63.9001 40.1001C64.1001 40.0001 64.2001 39.9001 64.4001 39.9001C65.1001 39.7001 65.9001 39.5001 66.6001 39.4001L71.2001 38.9001L74.3001 38.7001V37.9001C71.7001 38.0001 69.0001 38.2001 66.4001 38.6001C65.6001 38.7001 64.8001 38.9001 64.1001 39.2001L63.5001 39.5001C63.4001 39.6001 63.3001 39.6001 63.2001 39.7001H63.0001L62.9001 39.8001C62.6001 40.1001 62.4001 40.4001 62.2001 40.8001C61.4001 42.2001 60.9001 43.8001 60.8001 45.4001C60.7001 46.2001 60.7001 47.0001 60.9001 47.8001C61.0001 48.6001 61.3001 49.4001 61.7001 50.1001C62.1217 50.8196 62.6628 51.4621 63.3001 52.0001L63.8001 52.4001L64.4001 52.7001C64.8001 52.9001 65.2001 53.0001 65.6001 53.1001C67.1001 53.5001 68.7001 53.7001 70.3001 53.7001H75.7001V53.6001C75.6001 53.4001 75.7001 53.2001 75.8001 53.1001V53.1001ZM76.0001 63.0001L75.7001 63.2001V63.5001L76.0001 63.0001ZM115.2 93.9001C115.2 93.8001 115.1 93.7001 115 93.7001C114.9 93.7001 114.7 93.8001 114.7 93.9001C114.7 95.4001 114.1 96.9001 113.3 98.1001C112.4 99.3001 111.2 100.3 109.8 100.9C108.4 101.6 107 102 105.5 102.3C104 102.6 102.5 102.7 101 102.7C100.2 102.7 99.5001 102.6 98.8001 102.5L97.8001 102.2C97.7001 102.1 97.5001 102.1 97.4001 102C97.3001 102 97.3001 101.9 97.3001 101.9V101.8L97.0001 100.8L96.8001 99.7001L96.6001 97.4001L96.1001 88.1001L96.0001 81.9001C95.7001 81.9001 95.4001 81.9001 95.1001 81.8001V81.7001L96.0001 81.3001V78.3001L94.8001 77.8001V77.7001C95.2001 77.6001 95.6001 77.7001 96.0001 77.7001V77.3001C95.5001 77.4001 95.1001 77.4001 94.6001 77.3001L94.9001 88.1001L95.4001 97.5001L95.7001 99.9001L95.9001 101.1C96.0001 101.5 96.1001 102 96.3001 102.4C96.3001 102.5 96.4001 102.5 96.4001 102.6L96.6001 102.8C96.7001 102.9 96.8001 103 96.9001 103L97.5001 103.3C97.9001 103.4 98.3001 103.6 98.7001 103.6L99.8001 103.7V103.5C99.7001 103.2 100.3 103 100.3 103.4L100.4 103.8H101.2C102.1 103.8 103 103.7 103.9 103.6C103.8 103.3 104.3 103.1 104.4 103.5V103.6L105.9 103.3L108 102.7C108 102.5 108.1 102.4 108.3 102.4C108.4 102.4 108.5 102.4 108.5 102.5C109.1 102.3 109.8 102 110.4 101.7C110.8 101.5 111.1 101.3 111.5 101V100.8C111.5 100.7 111.6 100.6 111.7 100.5C111.8 100.4 111.9 100.5 112 100.6C112.6 100.1 113.2 99.6001 113.6 99.0001C113.4 98.8001 113.7 98.5001 113.9 98.6001L114 98.5001C114.6 97.6001 115 96.7001 115.2 95.6001L114.9 93.9001H115.2C115.2 94.6001 115.1 95.2001 115 95.7001C115.2 97.1001 115.2 98.6001 114.9 100C114.7 101 114.4 101.9 113.9 102.8C113.4 103.6 112.8 104.4 112 105C111.2 105.6 110.3 106.1 109.4 106.4C108.5 106.8 107.5 107.1 106.5 107.4C104.568 107.976 102.596 108.41 100.6 108.7C96.6069 109.398 92.5427 109.6 88.5001 109.3C86.6001 109.2 84.7001 108.9 82.8001 108.5C82.6001 108.8 82.3001 109 82.0001 109.3C81.6001 109.6 81.0001 109 81.4001 108.7C81.6001 108.6 81.7001 108.4 81.9001 108.3C80.2001 107.8 78.5001 107.2 77.0001 106.3C75.3001 105.4 73.8001 104.1 72.5001 102.5C71.9001 101.7 71.4001 100.9 71.0001 100L69.8001 97.2001C69.1001 95.3001 68.6001 93.4001 68.2001 91.4001C67.8001 89.4001 67.7001 87.4001 67.6001 85.4001L67.7001 83.6001L67.3001 83.7001C67.2001 83.7001 67.0001 83.7001 67.0001 83.5001L66.9001 85.3001C66.8003 87.3716 66.9008 89.4479 67.2001 91.5001C67.5001 93.6001 68.0001 95.6001 68.6001 97.6001C68.9001 98.6001 69.3001 99.6001 69.8001 100.5C70.3001 101.5 70.8001 102.4 71.5001 103.2L71.6001 103.3L71.9001 102.7H72.0001C72.1001 102.7 72.0001 102.7 72.0001 102.8L71.8001 103.6C73.1001 105.1 74.7001 106.4 76.4001 107.3C77.1001 107.7 77.8001 108 78.5001 108.3V108.1H78.7001V108.4C79.9001 108.9 81.1001 109.3 82.3001 109.5C84.3323 110.002 86.4089 110.304 88.5001 110.4H89.3001L89.4001 109.7C89.4001 109.5 89.6001 109.3 89.8001 109.4C89.9001 109.4 89.9001 109.4 90.0001 109.5C90.1001 109.6 90.2001 109.7 90.1001 109.9L90.0001 110.5C93.5892 110.602 97.1784 110.301 100.7 109.6L106.7 108.2L109.6 107.2C110.6 106.8 111.5 106.3 112.3 105.6C113.1 104.9 113.8 104.1 114.3 103.1C114.8 102.2 115.1 101.1 115.3 100.1C115.5 99.1001 115.5 98.0001 115.4 97.0001C115.6 96.0001 115.4 94.9001 115.2 93.9001V93.9001Z" fill="black"/>
<path d="M67.1 83.2001L67.7 83.1001C67.8 81.9001 68 80.6001 68.2 79.4001L68.4 78.5001C68.4 78.4001 68.4 78.3001 68.5 78.2001C68.8 76.6001 69.3 75.0001 69.9 73.5001C70.5972 71.6056 71.5028 69.7945 72.6 68.1001L73.8 66.5001L73.9 66.4001C74.7 65.4001 75.7 64.6001 76.7 63.9001C76.7918 63.8533 76.8687 63.7815 76.9217 63.6931C76.9748 63.6047 77.0019 63.5032 77 63.4001L76.8 53.6001L75.6 53.7001L75.8 63.2001L76 63.0001L75.7 63.5001V63.2001C75.0899 63.6114 74.5206 64.0802 74 64.6001C74.7 64.3001 75.3 63.9001 75.9 63.5001C75.2 64.3001 74.3 65.0001 73.3 65.5001L73.1 65.6001C72.6 66.2001 72.1 66.9001 71.6 67.6001C71.1 68.3001 70.7 69.1001 70.4 69.8001L70.9 69.9001L70.4 70.0001L69 73.3001C68.3 75.3001 67.8 77.3001 67.5 79.3001L67 83.3001C67.1 83.3001 67.1 83.2001 67.1 83.2001V83.2001Z" fill="black"/>
<path d="M76.7 53.5998C76.6884 53.4445 76.6215 53.2985 76.5114 53.1884C76.4012 53.0783 76.2553 53.0114 76.1 52.9998H76L75.8 53.0998C75.7081 53.1467 75.6313 53.2184 75.5782 53.3068C75.5252 53.3952 75.4981 53.4967 75.5 53.5998V53.6998L76.7 53.5998ZM74.4 40.1998C74.5 40.4998 74.7 40.6998 74.9 40.8998C75.2 41.0998 75.5 41.1998 75.8 41.1998C76.1 41.1998 76.4 40.9998 76.7 40.7998C76.9 40.5998 77.1 40.3998 77.2 40.0998C77.4 39.5998 77.5 39.0998 77.4 38.5998H77.2C77.3 39.7998 76.7 40.6998 75.8 40.7998C75.5 40.7998 75.2 40.6998 75 40.5998C75 40.6998 74.9 40.6998 74.8 40.6998C74.6 40.6998 74.4 40.2998 74.4 39.7998C74.3 39.4998 74.2 39.0998 74.2 38.7998V38.6998V38.7998C74.2 39.1998 74.3 39.6998 74.4 40.1998ZM75.6 36.5998C76.3 36.5998 76.8 37.0998 77 37.6998H77.1C77 37.4998 76.9 37.3998 76.8 37.1998C76.7 36.9998 76.5 36.7998 76.3 36.5998C76.1 36.3998 75.8 36.2998 75.5 36.2998C75.2 36.2998 74.9 36.3998 74.7 36.5998C74.5 36.7998 74.3 36.9998 74.3 37.2998C74.3 37.4998 74.2 37.6998 74.2 37.7998H74.3C74.4 37.0998 74.9 36.6998 75.6 36.5998Z" fill="black"/>
<path d="M77.2 38.6002H77.4L77.1 37.7002H77C77.1 38.0002 77.1 38.3002 77.2 38.6002ZM74.2 38.6002C74.2 38.3002 74.3 38.0002 74.3 37.7002H74.2V38.6002Z" fill="black"/>
<path d="M74.7 37.5001C74.9 37.2001 75.2 37.0001 75.6 36.9001H76.1C76.3 37.0001 76.5 37.1001 76.6 37.3001C76.7 37.4001 76.8 37.5001 76.8 37.7001H77C76.8 37.1001 76.3 36.6001 75.6 36.6001C75 36.7001 74.5 37.2001 74.3 37.8001H74.5C74.5 37.7001 74.6 37.6001 74.7 37.5001V37.5001ZM74.5 39.7001V39.4001C74.4 39.2001 74.3 39.0001 74.3 38.7001V38.6001V38.7001C74.2 39.1001 74.3 39.4001 74.5 39.7001ZM76.6 39.8001C76.4 40.1001 76.1 40.3001 75.8 40.4001C75.6 40.4001 75.4 40.3001 75.2 40.2001C75.2 40.3001 75.1 40.4001 75.1 40.5001C75.3 40.7001 75.6 40.8001 75.9 40.7001C76.7 40.7001 77.3 39.7001 77.3 38.5001H77.1L76.6 39.8001V39.8001Z" fill="black"/>
<path d="M77 38.6H77.2C77.2 38.3 77.1 38 77 37.7H76.9C76.9 38 77 38.3 77 38.6ZM74.5 37.8H74.3C74.2 38.1 74.2 38.4 74.2 38.7C74.3 38.3 74.3 38 74.5 37.8ZM79.9 42.3C80 42.8 80.3 43.2 80.7 43.4C81.1 43.7 81.6 43.8 82.1 43.8C82.6 43.7 83 43.6 83.4 43.3C84.1 42.8 84.6 42.1 85 41.3C85.5 40.6 85.8 39.7 85.9 38.9V38.8H85.7C85.7 39.7 85.5 40.5 85 41.3C84 43.1 82.1 44 80.9 43.2C79.7 42.4 79.5 40.4 80.6 38.6H80.4C80 39.4 79.8 40.2 79.8 41C79.7 41.4 79.8 41.9 79.9 42.3V42.3ZM84.6 36.7C85 36.9 85.3 37.3 85.4 37.8H85.8L85.7 37.5C85.5179 37.0238 85.2061 36.6081 84.8 36.3C84.5 36.1 84 36 83.4 36C82.9 36.1 82.5 36.2 82.1 36.5C81.6 36.8 81.2 37.2 80.9 37.6H81.3C82.3 36.5 83.7 36.1 84.6 36.7V36.7Z" fill="black"/>
<path d="M85.7 38.8H85.9C85.9 38.5 85.9 38.1 85.8 37.8H85.4C85.6031 38.0933 85.7081 38.4434 85.7 38.8ZM80.4 38.5H80.6C80.8 38.2 81 37.8 81.3 37.5H80.9C80.7 37.9 80.5 38.2 80.4 38.5Z" fill="black"/>
<path d="M82.5 37.1C83.1 36.7 83.9 36.7 84.5 37C84.8 37.2 85 37.4 85.1 37.7H85.5C85.4 37.3 85.1 36.9 84.7 36.6C83.7 36 82.4 36.4 81.3 37.5H81.8C82 37.4 82.2 37.2 82.5 37.1ZM80.9 43.2C82.1 43.9 84 43.1 85 41.3C85.4 40.5 85.7 39.7 85.7 38.8H85.4V38.9C85.5 39.7 85.3 40.6 84.9 41.3C84.5 42 83.8 42.6 83.1 42.9C82.4 43.2 81.7 43.3 81 42.9C80.3 42.5 79.9 41.7 80 41C80 40.2 80.3 39.4 80.7 38.7L80.8 38.6H80.5C79.5 40.4 79.7 42.5 80.9 43.2V43.2Z" fill="black"/>
<path d="M81.8 37.6001H81.3C81 37.9001 80.8 38.2001 80.6 38.6001H80.9C81.1 38.2001 81.4 37.9001 81.8 37.6001ZM85.1 37.7001C85.3 38.0001 85.4 38.4001 85.4 38.8001H85.7C85.7 38.4001 85.6 38.1001 85.5 37.7001H85.1V37.7001ZM76.6 52.8001C77.2 52.5001 77.9 52.2001 78.4 51.8001C79.9 50.8001 80.2 49.5001 80.1 47.8001C79.8 47.8001 79.6 47.7001 79.3 47.6001C79.3 47.7001 79.2 47.8001 79.2 47.8001C79.347 48.553 79.228 49.3337 78.8632 50.0086C78.4984 50.6835 77.9105 51.2107 77.2 51.5001C76 52.3001 74.7 52.7001 73.3 53.0001H73.2L74.8 52.9001L76.6 52.8001Z" fill="black"/>
<path d="M74.8 52.8998L73.2 52.9998C72.8 53.0998 72.8 53.8998 73.3 53.7998C74.2 53.6998 75 53.4998 75.8 53.0998C75.9 53.0998 75.9 52.9998 76 52.9998L76.5 52.7998L74.8 52.8998V52.8998Z" fill="black"/>
<path d="M76 53C75.9 53 75.9 53 75.8 53.1L76 53ZM80 47.7H80.8C81.3 47.6 81.3 46.8 80.8 46.9C79.9 47 79 46.6 78.6 45.8C78.5 45.6 78.2 45.6 78.1 45.7C78 45.8 77.8 46 77.9 46.2C78.2 46.7 78.7 47.2 79.3 47.4C79.4 47.3 79.6 47.2 79.8 47.3C80 47.4 80 47.5 80 47.7Z" fill="black"/>
<path d="M79.3 47.5002C79.5 47.6002 79.8 47.7002 80.1 47.7002C80.1 47.5002 80 47.4002 79.8 47.3002C79.6 47.2002 79.4 47.4002 79.3 47.5002V47.5002ZM84.3 87.1002C83.3 82.7002 81.9 78.5002 80 74.4002L79.5 74.6002L79.2 74.7002C80.9 78.3002 82.3 82.1002 83.2 86.0002C84.2 89.7002 84.8 93.6002 84.9 97.5002C84.9 100.8 84.6 105.8 82 108.4C82.2 108.5 82.4 108.5 82.6 108.6L82.9 108.7C84.9 106.4 85.4 102.8 85.6 99.9002C85.8 95.5002 85.4 91.2002 84.3 87.1002ZM73.8 67.1002C74.9 68.1002 75.8 69.3002 76.7 70.5002C77 70.4002 77.3 70.3002 77.5 70.2002C76.5766 68.8788 75.5393 67.6407 74.4 66.5002C74.3 66.3002 74 66.3002 73.8 66.5002L73.7 66.6002C73.6 66.8002 73.6 67.0002 73.8 67.1002V67.1002Z" fill="black"/>
<path d="M73.7 66.6001C73.8 66.5001 73.7 66.6001 73.7 66.6001V66.6001ZM81.9 108.3C81.8 108.4 81.6 108.6 81.4 108.7C81 109 81.6 109.6 82 109.3C82.3 109.1 82.6 108.8 82.8 108.5L82.5 108.4L81.9 108.3V108.3ZM89 114.5H88.6L88.5 114.9L89 114.5Z" fill="black"/>
<path d="M88.6 114.4H89L88.6 114.8V114.4C87.8 114.3 87 114.4 86.1 114.4L83.3 114.5L77.7 114.8C76.8 114.9 75.8 114.9 74.9 114.8C74.4 114.8 74 114.7 73.5 114.6C73.4 114.6 73.3 114.5 73.2 114.5C73.1 114.5 73 114.4 73 114.4V114.3C73 114.2 73.1 114.2 73.2 114.2C73.6 114 74 113.9 74.5 113.8L78.7 113.2C78.9 113.2 79.1 113 79.1 112.7L79 110.4L78.8 108.4L78.6 108.3L78.3 110.4L78.1 112.3H78.5L78.1 112.8V112.4L75.6 112.8L74.8 113L75.2 113.2V113.3C75.2 113.4 75.2 113.3 75.1 113.3H73.9C73.5 113.4 73.1 113.7 72.7 113.9C72.6 114 72.5 114.1 72.4 114.3C72.4 114.4 72.3 114.5 72.4 114.6C72.4 114.7 72.5 114.8 72.5 114.9C72.6 115 72.7 115.1 72.9 115.1C73 115.1 73.1 115.2 73.3 115.2C73.8 115.3 74.3 115.3 74.7 115.4L77.5 115.7C79.4 115.9 81.3 115.9 83.2 115.9L86 115.8C86.9 115.8 87.9 115.7 88.8 115.6C89 115.6 89.2 115.4 89.2 115.2L89.8 110.7H89L88.6 114.4V114.4Z" fill="black"/>
<path d="M78.4 112.3H78V112.7L78.4 112.3ZM89.8 109.5C89.6 109.5 89.4 109.6 89.4 109.8L89.3 110.5H90.0999L90.1999 109.9C90.1999 109.7 90 109.5 89.8 109.5V109.5ZM78.5999 108.1C78.4999 108.1 78.4999 108.1 78.5999 108.1C78.4999 108.2 78.5 108.3 78.5 108.3L78.6999 108.4L78.5999 108.1V108.1ZM74.8 112.9L70.9 111.6L68.6999 111L66.5 110.5C65.8 110.4 65 110.2 64.4 109.8L64.0999 109.5V109.4C64.0999 109.4 64.2 109.3 64.3 109.3C64.6 109.2 65 109.2 65.4 109.2L67.5999 109.5L69.8 109.9C70 109.9 70.3 109.8 70.3 109.6L71.1999 106.3L71.5999 104.6L71.8 103.7L71.5999 103.5C71.3999 103.8 71.2999 104.2 71.1999 104.5L70.5999 106.1L69.5999 109L70 109.1L69.4 109.4L69.5 109C68.1 108.8 66.7 108.7 65.3 108.9C64.9 108.9 64.4999 109 64.0999 109.1C63.9999 109.1 63.8999 109.2 63.7999 109.3C63.6999 109.4 63.7 109.6 63.7 109.7C63.8 109.9 63.8999 110.1 64.0999 110.2L66.1999 111.3C66.8999 111.6 67.6 111.9 68.4 112.1L70.5999 112.7L74 113.2L74.1999 113.1L74.8 112.9V112.9Z" fill="black"/>
<path d="M69.9 109L69.5 108.9L69.4 109.3L69.9 109V109ZM72 102.9C72 102.8 72 102.8 72 102.9C71.9 102.8 71.9 102.8 72 102.9C71.9 102.8 71.9 102.8 72 102.9L71.6 103.5L71.8 103.7L72 102.9ZM75.3 113.2C75.3 113.1 75.3 113.1 75.3 113.2C75.3 113.1 75.2 113.1 75.3 113.2L74.8 112.9L74.2 113.1L74 113.2H75.3C75.3 113.2 75.2 113.2 75.3 113.2ZM80.9 39.6998C80.5 39.6998 80.2 40.2998 80.2 41.0998C80.2 41.8998 80.6 42.3998 81 42.3998C81.4 42.3998 81.7 41.7998 81.7 40.9998C81.7 40.1998 81.3 39.5998 80.9 39.6998ZM75.2 40.1998V39.6998C75.2 39.1998 75 38.7998 74.8 38.7998C74.6 38.7998 74.5 39.0998 74.5 39.4998C74.6 39.6998 74.9 39.9998 75.2 40.1998V40.1998Z" fill="black"/>
<path d="M74.5 39.7002C74.5 40.2002 74.7 40.6002 74.9 40.6002C75 40.6002 75 40.5002 75.1 40.5002C74.8 40.3002 74.6 40.0002 74.5 39.7002V39.7002Z" fill="black"/>
<path d="M74.8 39.8999C74.6 39.7999 74.5 39.5999 74.4 39.3999V39.6999C74.5 39.9999 74.7 40.1999 75 40.3999C75.1 40.2999 75.1 40.1999 75.1 40.0999C75 40.0999 74.9 39.9999 74.8 39.8999V39.8999ZM94.3 57.2999V56.9999C93.7534 57.1207 93.2181 57.288 92.7 57.4999C93.3 57.3999 93.8 57.2999 94.3 57.2999ZM98.8 58.5999C99.5 59.6999 97.5 60.8999 95.7 61.6999V61.8999H96L96.5 61.6999L98 60.7999C98.3 60.5999 98.5 60.3999 98.7 60.1999C99 59.8999 99.1 59.5999 99.2 59.2999V58.6999C99.2 58.5999 99.1 58.4999 99.1 58.3999L98.5 57.7999C98.4 57.6999 98.2 57.5999 98.1 57.4999C97.5 57.1999 96.9 57.0999 96.3 56.9999H95.7V57.3999C96.9 57.3999 98.2 57.7999 98.8 58.5999V58.5999Z" fill="black"/>
<path d="M95.7 61.9V61.7L95.2 61.9H95.7ZM94.3 57V57.3H95.7V57H94.3Z" fill="black"/>
<path d="M96.2 57.7998C96.7 57.8998 97.3 57.9998 97.7 58.1998C97.8 58.2998 97.9 58.2998 98 58.3998L98.2 58.5998C98.3 58.6998 98.4 58.8998 98.4 59.0998L98.1 59.6998C97.9 59.8998 97.7 60.0998 97.5 60.1998L96.1 61.0998L95.7 61.2998V61.6998C97.5 60.8998 99.5 59.6998 98.8 58.5998C98.3 57.7998 97 57.4998 95.8 57.3998V57.7998H96.2ZM92.8 57.3998L94.4 57.5998V57.2998C93.8 57.2998 93.3 57.3998 92.8 57.3998V57.3998Z" fill="black"/>
<path d="M94.5 57.6998H95.7V57.2998H94.3V57.5998L94.5 57.6998ZM94.6 61.7998L94.3 61.9998L94.8 61.8998H95.1L95.6 61.6998V61.2998L94.6 61.7998ZM93.1 72.5998C93.5 72.6998 93.9 72.6998 94.3 72.6998V72.4998L93.1 72.5998V72.5998ZM99.6 69.9998C100 71.1998 97.7 71.8998 95.7 72.1998V72.5998L96.6 72.4998C97.2 72.3998 97.8 72.1998 98.3 71.9998C98.6 71.8998 98.9 71.6998 99.1 71.4998C99.4 71.2998 99.6 70.9998 99.7 70.6998C99.7 70.5998 99.7 70.4998 99.8 70.3998V70.0998C99.8 69.8998 99.7 69.7998 99.6 69.6998C99.5 69.5998 99.4 69.3998 99.3 69.2998L99 68.9998C98.5783 68.5792 98.1084 68.21 97.6 67.8998C97.1 67.5998 96.5 67.4998 95.9 67.3998H95.7V67.6998C97.1 67.9998 99.1 68.6998 99.6 69.9998V69.9998Z" fill="black"/>
<path d="M94.3 72.4002V72.6002C94.8 72.6002 95.2 72.6002 95.7 72.5002V72.1002L94.3 72.4002ZM94.8 67.4002L95.7 67.6002V67.3002L95.3 67.2002L94.8 67.4002V67.4002Z" fill="black"/>
<path d="M97.3 68.5001C97.8 68.6001 98.4 68.9001 98.8 69.2001L99.1 69.5001C99.2 69.6001 99.3 69.7001 99.3 69.8001C99.4 70.0001 99.4 70.3001 99.3 70.5001C99.2 70.7001 99 70.8001 98.7 70.9001C98.5 71.0001 98.2 71.1001 98 71.2001C97.5 71.4001 96.9 71.5001 96.4 71.6001L95.6 71.8001V72.2001C97.6 71.9001 99.9 71.2001 99.5 70.0001C99.1 68.7001 97 68.0001 95.6 67.6001V67.9001L97.3 68.5001V68.5001ZM93.1 72.5001L94.3 72.4001V72.2001L93.1 72.5001Z" fill="black"/>
<path d="M94.3 72.1999V72.3999L95.7 72.1999V71.7999L94.3 72.1999ZM95.6 67.8999V67.5999L94.7 67.3999L94.4 67.4999L95.6 67.8999ZM98.5 75.2999C98.8 76.1999 97.2 76.6999 95.7 76.9999V77.3999L96.2 77.2999C96.7 77.1999 97.1 77.0999 97.5 76.8999C97.7 76.7999 97.9 76.6999 98.1 76.4999C98.3 76.2999 98.5 76.0999 98.6 75.8999V75.4999C98.6 75.3999 98.5 75.2999 98.5 75.2999C98.3 75.0999 98.3 74.9999 98.2 74.8999C98.1 74.7999 98 74.6999 98 74.5999C97.7 74.2999 97.3 73.9999 96.9 73.6999L96.3 73.3999C96.1 73.2999 95.9 73.2999 95.6 73.1999V73.4999C96.8 73.7999 98.2 74.2999 98.5 75.2999V75.2999ZM93.5 77.1999C93.8 77.2999 94 77.2999 94.3 77.2999V77.0999L93.5 77.1999V77.1999Z" fill="black"/>
<path d="M94.3 73.2L95.7 73.5V73.2C95.2 73.1 94.7 73.1 94.3 73.2Z" fill="black"/>
<path d="M94.3 77.2V77.4H95.7V77L94.3 77.2ZM96.8 74.2C97.2 74.3 97.6 74.5 98 74.7C98.1 74.8 98.2 74.8 98.2 74.9C98.3 75 98.3 75.1 98.4 75.2C98.5 75.4 98.5 75.6 98.4 75.7C98.3 75.8 98.1 75.9 98 76C97.8 76.1 97.6 76.2 97.4 76.2L96.1 76.5L95.7 76.6V77C97.2 76.7 98.8 76.2 98.5 75.3C98.2 74.4 96.8 73.8 95.7 73.5V73.8L96.8 74.2Z" fill="black"/>
<path d="M93.5 77.2002H94.3V77.0002L93.5 77.2002ZM95.7 73.8002V73.5002L94.3 73.2002L95.7 73.8002Z" fill="black"/>
<path d="M94.3 77V77.2L95.7 77V76.6L94.3 77ZM96.6 78.7C96.9 78.8 97.3 78.9 97.6 79.1C97.9 79.3 98.2 79.6 98.3 79.9C98.3 80 98.3 80.2 98.2 80.3L97.9 80.6C97.6 80.8 97.3 80.9 97 81L95.8 81.4V82H96C96.4 82 96.8 81.9 97.2 81.8C97.6 81.7 98 81.5 98.3 81.2C98.5 81 98.6 80.8 98.6 80.6C98.6 80.4 98.6 80.1 98.5 79.9C98.3 79.5 98.1 79.2 97.8 78.9C97.5 78.6 97.2 78.4 96.9 78.2C96.5 78 96.2 77.9 95.8 77.9V78.5L96.6 78.7V78.7ZM94.8 81.7C95.1 81.9 95.4 81.9 95.7 81.9V81.3L94.8 81.7V81.7ZM94.5 77.7L95.7 78.3V77.7H94.5ZM93.4 67.7L94.1 67.6V67.4L93.4 67.7ZM95.7 62.3C97 62.4 98.5 62.7 99.1 63.6C99.8 64.7 97.6 66 95.7 66.8V67.2L96.8 66.8L98.3 65.8C98.5 65.6 98.8 65.4 99 65.2C99.2 64.9 99.4 64.6 99.4 64.3C99.4 64.1 99.4 63.9 99.3 63.8C99.3 63.7 99.2 63.7 99.2 63.6L99 63.3L98.8 63.1L98.6 63C98.5 62.9 98.4 62.8 98.2 62.8C97.7 62.5 97.1 62.3 96.5 62.1C96.4 62 96.2 62 96 62L95.7 62.1V62.3V62.3Z" fill="black"/>
<path d="M94.5 67.2001H95.2L95.6 67.0001V66.6001C95.6 66.8001 94.5 67.2001 94.5 67.2001V67.2001ZM95.7 62.3001V62.1001L95.4 62.2001L95.7 62.3001Z" fill="black"/>
<path d="M93.1 62.3999L93.8 62.2999L94.2 62.0999C93.8 62.0999 93.4 62.1999 93.1 62.3999V62.3999ZM95.7 61.8999V62.0999L96 61.9999L95.7 61.8999Z" fill="black"/>
<path d="M94.4 62.3H95.4L95.7 62.2V62H95.1L94.4 62.3ZM93.8 62.3H94.3V62H94.2L93.8 62.3Z" fill="black"/>
<path d="M94.4 62.3L95.1 62H94.3L94.4 62.3ZM94.3 67.4H94.1V67.6H94.3V67.4Z" fill="black"/>
<path d="M94.5 67.4998L94.3 67.3998V67.5998C94.3 67.4998 94.4 67.4998 94.5 67.4998V67.4998ZM94.8 67.3998L95.3 67.2998H94.6L94.4 67.3998H94.8Z" fill="black"/>
<path d="M94.3 67.2998L94.5 67.3998L94.8 67.2998H94.3ZM94.1 67.2998L93.3 67.6998L94 67.3998L94.1 67.2998V67.2998ZM96.5 62.5998C97.1 62.5998 97.6 62.6998 98.1 62.8998C98.2 62.9998 98.4 62.9998 98.5 63.0998L98.8 63.3998C99 63.5998 99.1 63.7998 99 64.0998C98.9 64.2998 98.7 64.4998 98.6 64.6998C98.4 64.8998 98.2 64.9998 98 65.1998C97.5 65.4998 97 65.7998 96.5 65.9998L95.8 66.3998V66.7998C97.7 65.9998 99.9 64.6998 99.2 63.5998C98.6 62.6998 97.2 62.3998 95.8 62.2998V62.5998H96.5Z" fill="black"/>
<path d="M94.3 67.1002L94.6 67.2002L95.8 66.7002V66.3002L94.3 67.1002V67.1002ZM94.8 62.5002L94.5 62.6002L95.6 62.7002V62.4002H95.3L94.8 62.5002V62.5002ZM93.5 62.4002L93.7 62.3002L93 62.4002H93.5ZM93.8 62.5002H94.2V62.3002L93.8 62.5002ZM94.3 62.5002H94.6L94.9 62.4002L95.4 62.2002H94.3V62.5002V62.5002Z" fill="black"/>
<path d="M94.3 62.2998H93.8L93.6 62.3998H93.9L94.3 62.2998Z" fill="black"/>
<path d="M94.1 67.3002H94.3V67.2002L94.1 67.3002ZM94.3 67.3002L94.6 67.2002L94.3 67.3002Z" fill="black"/>
<path d="M64.6999 40.4998L63.8999 40.8998C63.5999 41.0998 63.5999 41.3998 63.6999 41.5998C63.8999 41.8998 64.1999 41.8998 64.4999 41.7998L65.2999 41.3998C65.5999 41.1998 65.5999 40.8998 65.4999 40.6998C65.3999 40.4998 64.8999 40.2998 64.6999 40.4998ZM66.8999 41.2998L66.5999 41.4998C66.2999 41.6998 66.2999 41.9998 66.3999 42.2998C66.5999 42.5998 66.8999 42.5998 67.0999 42.4998L67.3999 42.2998C67.6999 42.0998 67.6999 41.7998 67.5999 41.4998C67.4999 41.1998 67.1999 41.0998 66.8999 41.2998ZM91.0999 62.6998V60.5998C91.0999 60.2998 90.7999 60.0998 90.4999 60.0998C90.1999 60.0998 89.9999 60.2998 89.8999 60.5998V62.6998C89.8999 62.9998 90.1999 63.1998 90.4999 63.1998C90.8999 63.1998 91.0999 62.9998 91.0999 62.6998ZM90.2999 69.1998V71.2998C90.2999 71.5998 90.4999 71.8998 90.7999 71.8998C90.8999 71.8998 90.9999 71.8998 91.0999 71.7998C91.1918 71.753 91.2686 71.6813 91.3217 71.5929C91.3747 71.5045 91.4018 71.4029 91.3999 71.2998V69.1998C91.3999 68.8998 91.1999 68.5998 90.8999 68.5998C90.7999 68.5998 90.6999 68.5998 90.5999 68.6998C90.5081 68.7467 90.4313 68.8184 90.3782 68.9068C90.3252 68.9952 90.2981 69.0967 90.2999 69.1998V69.1998ZM90.3999 75.5998C90.3999 74.8998 89.2999 74.8998 89.2999 75.5998C89.2999 76.3998 89.3999 77.0998 89.5999 77.7998C89.7999 78.4998 90.8999 78.1998 90.6999 77.4998C90.3999 76.8998 90.2999 76.1998 90.3999 75.5998ZM91.6999 80.8998C91.9999 80.7998 92.1999 80.4998 92.0999 80.1998L91.8999 79.4998C91.7999 79.1998 91.4999 78.9998 91.1999 79.0998C91.0999 79.0998 90.9999 79.1998 90.8999 79.2998C90.7999 79.3998 90.6999 79.5998 90.7999 79.7998L90.9999 80.4998C91.0999 80.7998 91.3999 80.8998 91.6999 80.8998V80.8998ZM91.8999 85.8998L91.9999 85.2998C92.0999 84.9998 91.8999 84.6998 91.5999 84.5998C91.2999 84.4998 90.9999 84.6998 90.8999 84.9998L90.7999 85.5998C90.6999 85.8998 90.8999 86.1998 91.1999 86.2998H91.4999C91.6999 86.2998 91.8999 86.0998 91.8999 85.8998ZM92.4999 89.9998C92.3999 89.6998 92.0999 89.4998 91.7999 89.5998C91.4999 89.6998 91.2999 89.9998 91.3999 90.2998L91.6999 90.9998C91.7999 91.2998 92.0999 91.3998 92.3999 91.3998C92.6999 91.2998 92.8999 90.9998 92.7999 90.6998L92.4999 89.9998ZM87.9999 64.5998C87.6999 64.5998 87.4999 64.7998 87.4999 65.1998C87.4999 65.5998 87.6999 65.6998 88.0999 65.6998C88.1667 65.7043 88.2337 65.6944 88.2964 65.6708C88.3591 65.6472 88.416 65.6105 88.4633 65.5632C88.5106 65.5159 88.5473 65.4589 88.5709 65.3963C88.5945 65.3336 88.6044 65.2666 88.5999 65.1998C88.5999 64.8998 88.3999 64.5998 87.9999 64.5998ZM92.9999 54.1998C93.2999 54.1998 93.4999 53.9998 93.4999 53.5998C93.4999 53.1998 93.2999 53.0998 92.8999 53.0998C92.8331 53.0954 92.7662 53.1053 92.7035 53.1289C92.6408 53.1524 92.5839 53.1891 92.5366 53.2365C92.4892 53.2838 92.4526 53.3407 92.429 53.4034C92.4054 53.4661 92.3955 53.533 92.3999 53.5998C92.4115 53.7551 92.4784 53.9011 92.5885 54.0112C92.6987 54.1214 92.8446 54.1883 92.9999 54.1998ZM99.0999 105.9C98.8999 106.2 99.3999 106.5 99.5999 106.2C99.9999 105.5 100.1 104.7 99.9999 103.9H99.3999C99.5999 104.5 99.4999 105.3 99.0999 105.9V105.9Z" fill="black"/>
<path d="M100 103.5C99.9 103.2 99.4 103.3 99.5 103.6V103.8H100.1L100 103.5ZM103.4 106C103.3 106.3 103.8 106.5 103.9 106.1C104.2 105.3 104.3 104.4 104 103.6C103.8 103.6 103.6 103.7 103.4 103.7C103.8 104.5 103.7 105.3 103.4 106V106ZM104.1 103.5C104 103.2 103.5 103.3 103.6 103.6C103.8 103.6 104 103.6 104.1 103.5C104.1 103.6 104.1 103.6 104.1 103.5ZM107.9 105.8C107.9 106.2 108.4 106.2 108.5 105.8C108.6 104.8 108.5 103.7 108.4 102.7V102.6L107.9 102.8V105.8V105.8Z" fill="black"/>
<path d="M107.8 102.8L108.3 102.6C108.1 102.4 107.8 102.5 107.8 102.8ZM111.8 102.3V100.8C111.8 100.7 111.8 100.7 111.7 100.6L111.2 101V102.3C111.2 102.4 111.3 102.5 111.3 102.5C111.3 102.5 111.5 102.6 111.6 102.5C111.7 102.4 111.8 102.4 111.8 102.3Z" fill="black"/>
<path d="M111.2 100.9V101.1L111.7 100.7C111.6 100.6 111.5 100.6 111.4 100.6C111.3 100.6 111.2 100.7 111.2 100.9ZM113.6 99.6002C113.6 99.7002 113.7 99.8002 113.7 99.8002C113.7 99.8002 113.9 99.9002 114 99.8002C114.1 99.7002 114.1 99.7002 114.1 99.6002C114.1 99.3002 114 99.0002 113.7 98.8002C113.7 98.8002 113.6 98.8002 113.6 98.7002L113.3 99.1002C113.392 99.147 113.469 99.2188 113.522 99.3072C113.575 99.3956 113.602 99.4971 113.6 99.6002V99.6002Z" fill="black"/>
<path d="M113.4 99.1001L113.7 98.7001C113.5 98.6001 113.2 98.9001 113.4 99.1001ZM68.7 78.7001C69.5 78.8001 70.3 78.8001 71.1 78.7001C72.1 78.6001 73.2 78.7001 74.2 79.0001C74.7 79.1001 75.2 79.1001 75.6 78.9001C76.6 78.7001 77.6 78.7001 78.6 79.0001C78.9 79.1001 79.1 78.5001 78.7 78.5001C77.9 78.3001 77.1 78.1001 76.3 78.1001L73.5 78.3001C71.9 78.1001 70.3 78.4001 68.6 78.3001C68.5 78.3001 68.4 78.3001 68.4 78.4001L68.3 78.7001C68.5 78.6001 68.6 78.7001 68.7 78.7001V78.7001Z" fill="black"/>
<path d="M68.4001 78.5002L68.5 78.2002C68.4 78.3002 68.4001 78.4002 68.4001 78.5002ZM72.2 83.8002C72.6 84.0002 73.1 84.1002 73.5 84.0002C74.3 83.8002 75.1001 83.7002 75.9001 83.8002C76.4001 83.9002 77 84.0002 77.5 84.2002C78.6 84.6002 79.7001 84.7002 80.8001 84.6002C81.1001 84.6002 81.1001 84.0002 80.8001 84.0002C79.3001 84.2002 78 83.6002 76.5 83.3002C75.5 83.1002 74.5 83.1002 73.5 83.3002C72.5 83.4002 72 82.7002 71 82.6002C69.9 82.6002 68.7 82.7002 67.7 83.0002V83.6002C68.4 83.4002 69.2001 83.3002 69.9001 83.2002C70.7001 83.2002 71.5 83.4002 72.2 83.8002ZM67 83.6002V83.3002C66.9 83.4002 66.9 83.5002 67 83.6002Z" fill="black"/>
<path d="M67.3 83.6999L67.7 83.5999V82.9999L67.1 83.0999C67 83.0999 67 83.0999 67 83.1999V83.4999C67 83.6999 67.2 83.7999 67.3 83.6999V83.6999ZM73.3 90.0999C74.4 90.1999 74.7 90.7999 75.6 91.1999C76.1 91.3999 76.7 91.3999 77.2 91.2999C78.524 91.1006 79.8611 91.0003 81.2 90.9999C81.3 90.9999 81.4 90.8999 81.4 90.8999C81.4 90.8999 81.5 90.6999 81.4 90.5999C81.3 90.4999 81.3 90.4999 81.2 90.4999C80 90.4999 78.8 90.4999 77.6 90.6999C76.5 90.8999 76.5 90.7999 75.3 90.0999C75.1 89.9999 75.1 89.6999 74.9 89.6999C73.3 89.0999 71 89.7999 69.3 89.9999C69 90.0999 69.1 90.5999 69.4 90.4999C70.7 90.1999 72 90.0999 73.3 90.0999ZM78.9 97.1999C80.4 97.3999 81.9 96.8999 83.5 97.0999C83.9 97.0999 83.9 96.5999 83.5 96.4999L81 96.5999C79.8 96.6999 78.7 96.5999 77.5 96.2999C75.6 96.0999 73.8 96.0999 71.9 96.4999C71.5 96.5999 71.7 97.0999 72 96.9999C74.3 96.6999 76.6 96.7999 78.9 97.1999V97.1999ZM83.3 102.4C82.7 102.4 82.2 102.5 81.6 102.6C80.5 102.8 79.4 102.7 78.4 102.4C77.3 102.1 76.1 102.3 75.1 102.8C74.8 102.9 74.9 103.5 75.2 103.3C76.0689 102.877 77.0384 102.704 78 102.8C78.5 102.9 79 103.2 79.6 103.3C80.8 103.5 82.1 103 83.3 103C83.5 103 83.6 102.9 83.6 102.7C83.6 102.5 83.5 102.4 83.3 102.4V102.4ZM72.3 73.7999C70.8 72.2999 74.1 71.3999 75.6 71.1999C76.1 71.1999 76.5 71.0999 76.9 70.8999L76.6 70.4999C76.3 70.5999 75.9 70.6999 75.6 70.6999C75.3 70.6999 75.1 70.7999 74.8 70.8999L74 71.1999C73.5 71.3999 73 71.6999 72.5 71.9999C72.3 72.1999 72 72.2999 71.9 72.5999C71.7947 72.7102 71.725 72.8495 71.7 72.9999V73.4999C71.9 73.9999 72.4 74.4999 72.9 74.6999C73.9 75.0999 75 75.2999 76.1 75.2999C77.1 75.2999 78.1 75.0999 79 74.8999L78.7 74.3999C76.4 74.6999 73.3 74.7999 72.3 73.7999V73.7999ZM80.7 67.8999C79.8 68.8999 78.7 69.6999 77.4 70.1999L77.7 70.5999C79 69.9999 80.1 69.0999 80.7 67.8999ZM81.5 72.9999C80.9 73.3999 80.3 73.5999 79.7 73.7999L80 74.2999C80.3 74.1999 80.7 73.9999 81 73.8999C81.3 73.7999 81.5 73.5999 81.7 73.4999C81.9 73.2999 82.1 73.1999 82.3 72.9999C82.7 72.5999 83.1 72.1999 83.3 71.6999C83.6 71.1999 83.7 70.6999 83.7 70.0999H83.6C83.7 70.0999 83.7 71.4999 81.5 72.9999V72.9999Z" fill="black"/>
<path d="M76.9 70.9002L77.7 70.6002L77.4 70.2002L76.6 70.5002C76.7 70.6002 76.8 70.8002 76.9 70.9002ZM78.8 74.1002L79.1 74.6002L79.4 74.5002L79.9 74.3002L79.6 73.8002L78.8 74.1002Z" fill="black"/>
<path d="M72.3 73.7999C73.3 74.7999 76.4 74.7999 78.9 74.0999L78.6 73.5999L76.2 74.0999L74.7 74.1999C74.2 74.1999 73.7 74.1999 73.2 74.0999C73 73.9999 72.8 73.9999 72.6 73.7999C72.4 73.6999 72.3 73.4999 72.2 73.2999C72.1 73.0999 72.2 72.8999 72.3 72.6999C72.5 72.4999 72.7 72.3999 72.9 72.2999C73.4 72.0999 73.8 71.9999 74.3 71.8999L75 71.7999H75.8L77.3 71.4999L77 71.0999L75.7 71.3999C74.1 71.2999 70.8 72.2999 72.3 73.7999V73.7999ZM82.9 71.2999C82.6 71.6999 82.2 71.9999 81.8 72.1999C81.4 72.4999 81 72.6999 80.5 72.8999L79.4 73.2999L79.7 73.7999C80.3 73.5999 80.9 73.2999 81.5 72.9999C83.7 71.4999 83.7 70.0999 83.7 70.0999H83.6C83.5 70.4999 83.2 70.9999 82.9 71.2999V71.2999ZM77.7 70.5999L78 70.9999C78.3 70.7999 78.6 70.6999 78.8 70.4999C79.7 69.7999 80.4 68.9999 80.7 67.8999C80.1 69.0999 79 69.9999 77.7 70.5999V70.5999Z" fill="black"/>
<path d="M78 71L77.7 70.6L76.9 70.9L77.2 71.3L78 71ZM78.6 73.6L78.9 74.1L79.7 73.9L79.4 73.4L79.1 73.5L78.6 73.6V73.6ZM67.7 69.5C66.7 69.3 65.6 69 64.6 68.6C64.1 68.4 63.7 68.2 63.2 67.9C63 67.8 62.8 67.6 62.6 67.5C62.4 67.4 62.3 67.2 62.2 67C62.1 66.9 62.1 66.8 62.1 66.6C62.1 66.5 62.2 66.5 62.3 66.4C62.7 66.2 63.2 66.2 63.6 66.2C64.6405 66.2007 65.6786 66.3012 66.7 66.5C68.8 66.9 71.1 66.5 73 65.5C73.3 65.1 73.6 64.8 73.9 64.5L73.1 65C72.1 65.4 71.1 65.6 70.1 65.7C69.1 65.8 68 65.7 67 65.5C65.9 65.3 64.8 65.1 63.7 65.1C63.1 65.1 62.5 65.2 61.9 65.5C61.7 65.6 61.6 65.7 61.4 65.8C61.2 66 61.1 66.2 61.1 66.4V67.1C61.2 67.3 61.2 67.4 61.4 67.6C61.6 67.9 61.8 68.1 62.1 68.3C62.3 68.5 62.6 68.6 62.8 68.8C63.3 69.1 63.8 69.3 64.4 69.4C65.5 69.7 66.6 69.9 67.7 70C68.6 70.1 69.5 70.1 70.4 70L70.5 69.9L67.7 69.5V69.5Z" fill="black"/>
<path d="M73.4 65.4999C74.4 64.9999 75.2 64.2999 76 63.4999C75.4 63.8999 74.8 64.2999 74.1 64.5999L73.2 65.5999L73.4 65.4999V65.4999ZM70.4 69.8999C70.4 69.8999 70.4 69.9999 70.4 69.8999C70.5 69.9999 70.7 69.9999 70.9 69.8999H70.4ZM46.6 46.7999C48.8 46.3999 50.9 45.7999 53 44.8999C53.3 44.7999 53.2 44.1999 52.9 44.3999C50.8 45.1999 48.7 45.7999 46.5 46.1999C46.1 46.3999 46.2 46.8999 46.6 46.7999ZM47.6 54.3999C49.5 54.3999 51.5 54.2999 53.4 53.9999C53.8 53.8999 53.6 53.3999 53.3 53.4999C51.4 53.7999 49.5 53.8999 47.6 53.8999C47.5 53.8999 47.4 53.9999 47.4 53.9999V54.2999C47.4 54.3999 47.5 54.3999 47.6 54.3999V54.3999ZM47.1 63.5999C46.7 63.4999 46.6 64.0999 47 64.0999L50.6 64.6999C50.9 64.7999 51.1 64.1999 50.7 64.1999L47.1 63.5999V63.5999Z" fill="black"/>
</svg>
