<svg width="182" height="182" viewBox="0 0 182 182" fill="none" xmlns="http://www.w3.org/2000/svg">
<mask id="mask0" mask-type="alpha" maskUnits="userSpaceOnUse" x="57" y="16" width="105" height="105">
<path fill-rule="evenodd" clip-rule="evenodd" d="M57.5523 16H161.553V120.001H57.5523V16Z" fill="white"/>
</mask>
<g mask="url(#mask0)">
<path fill-rule="evenodd" clip-rule="evenodd" d="M86.6353 114.665C60.8631 102.008 50.2312 70.8559 62.8872 45.0837C75.5446 19.3108 106.698 8.67821 132.47 21.3356C158.242 33.9924 168.874 65.1449 156.217 90.9171C143.561 116.69 112.408 127.323 86.6353 114.665Z" fill="#DDDDDD"/>
</g>
<mask id="mask1" mask-type="alpha" maskUnits="userSpaceOnUse" x="18" y="56" width="80" height="80">
<path fill-rule="evenodd" clip-rule="evenodd" d="M18 56.5403H97.1047V135.645H18V56.5403Z" fill="white"/>
</mask>
<g mask="url(#mask1)">
<path fill-rule="evenodd" clip-rule="evenodd" d="M40.1212 131.587C20.5181 121.959 12.4303 98.2643 22.0576 78.6612C31.6843 59.0581 55.3806 50.9717 74.9837 60.5983C94.5862 70.2256 102.673 93.9206 93.0466 113.524C83.4193 133.127 59.7243 141.214 40.1212 131.587Z" fill="#DDDDDD"/>
</g>
<path fill-rule="evenodd" clip-rule="evenodd" d="M49.9551 82.1252V137.843C49.9551 141.072 52.5735 143.691 55.803 143.691H121.057C124.287 143.691 126.905 141.072 126.905 137.843V82.1252H49.9551Z" fill="white"/>
<path fill-rule="evenodd" clip-rule="evenodd" d="M126.905 82.1251V52.7436C126.905 49.5134 124.286 46.895 121.057 46.895H55.8028C52.5732 46.895 49.9549 49.5134 49.9549 52.7436V82.1251H126.905Z" fill="#1174DC"/>
<mask id="mask2" mask-type="alpha" maskUnits="userSpaceOnUse" x="36" y="143" width="105" height="1">
<path fill-rule="evenodd" clip-rule="evenodd" d="M36.3564 143.35H140.504V143.969H36.3564V143.35Z" fill="white"/>
</mask>
<g mask="url(#mask2)">
<path fill-rule="evenodd" clip-rule="evenodd" d="M140.226 143.969H36.634C36.4802 143.969 36.3563 143.844 36.3563 143.691C36.3563 143.537 36.4802 143.413 36.634 143.413H140.226C140.38 143.413 140.504 143.537 140.504 143.691C140.504 143.844 140.38 143.969 140.226 143.969Z" fill="#1174DC"/>
</g>
<path fill-rule="evenodd" clip-rule="evenodd" d="M73.7688 99.5637H59.0395C58.8864 99.5637 58.7612 99.4391 58.7612 99.2853C58.7612 99.1315 58.8864 99.0076 59.0395 99.0076H73.7688C73.9226 99.0076 74.0465 99.1315 74.0465 99.2853C74.0465 99.4391 73.9226 99.5637 73.7688 99.5637Z" fill="#1174DC"/>
<path fill-rule="evenodd" clip-rule="evenodd" d="M107.415 99.5637H71.4618C71.308 99.5637 71.1841 99.4391 71.1841 99.2853C71.1841 99.1315 71.308 99.0076 71.4618 99.0076H107.415C107.568 99.0076 107.692 99.1315 107.692 99.2853C107.692 99.4391 107.568 99.5637 107.415 99.5637Z" fill="#1174DC"/>
<path fill-rule="evenodd" clip-rule="evenodd" d="M121.557 91.7495V95.7774C121.557 97.7151 119.987 99.286 118.05 99.286H112.836" fill="white"/>
<path fill-rule="evenodd" clip-rule="evenodd" d="M118.049 99.5637H112.836C112.682 99.5637 112.557 99.4391 112.557 99.2853C112.557 99.1315 112.682 99.0076 112.836 99.0076H118.049C119.831 99.0076 121.28 97.5586 121.28 95.7774V91.7495C121.28 91.5957 121.404 91.4705 121.557 91.4705C121.712 91.4705 121.836 91.5957 121.836 91.7495V95.7774C121.836 97.8655 120.138 99.5637 118.049 99.5637Z" fill="#1174DC"/>
<path fill-rule="evenodd" clip-rule="evenodd" d="M55.531 95.7778V71.5097C55.531 69.5714 57.1019 68.0005 59.0396 68.0005H121.558V86.0007" fill="white"/>
<path fill-rule="evenodd" clip-rule="evenodd" d="M55.531 96.0557C55.3772 96.0557 55.2534 95.9305 55.2534 95.7774V71.5086C55.2534 69.4205 56.9515 67.7217 59.0396 67.7217H121.558C121.711 67.7217 121.836 67.8469 121.836 68.0001V86.001C121.836 86.1541 121.711 86.2787 121.558 86.2787C121.404 86.2787 121.28 86.1541 121.28 86.001V68.2784H59.0396C57.2585 68.2784 55.8094 69.7275 55.8094 71.5086V95.7774C55.8094 95.9305 55.6855 96.0557 55.531 96.0557Z" fill="#1174DC"/>
<path fill-rule="evenodd" clip-rule="evenodd" d="M59.0397 99.2862C57.1013 99.2862 55.5312 97.7146 55.5312 95.7776L59.0397 99.2862Z" fill="white"/>
<path fill-rule="evenodd" clip-rule="evenodd" d="M59.0397 99.5641C56.9516 99.5641 55.2535 97.866 55.2535 95.7778C55.2535 95.624 55.3774 95.4988 55.5312 95.4988C55.685 95.4988 55.8095 95.624 55.8095 95.7778C55.8095 97.559 57.2586 99.008 59.0397 99.008C59.1936 99.008 59.3181 99.1319 59.3181 99.2857C59.3181 99.4395 59.1936 99.5641 59.0397 99.5641Z" fill="#1174DC"/>
<path fill-rule="evenodd" clip-rule="evenodd" d="M85.8616 106.939H59.0399C58.8861 106.939 58.7615 106.813 58.7615 106.66C58.7615 106.506 58.8861 106.383 59.0399 106.383H85.8616C86.0155 106.383 86.1393 106.506 86.1393 106.66C86.1393 106.813 86.0155 106.939 85.8616 106.939Z" fill="#1174DC"/>
<path fill-rule="evenodd" clip-rule="evenodd" d="M55.531 126.879V110.169C55.531 108.232 57.1019 106.661 59.0396 106.661" fill="white"/>
<path fill-rule="evenodd" clip-rule="evenodd" d="M55.531 127.157C55.3772 127.157 55.2534 127.032 55.2534 126.879V110.169C55.2534 108.081 56.9515 106.383 59.0396 106.383C59.1934 106.383 59.318 106.506 59.318 106.66C59.318 106.813 59.1934 106.939 59.0396 106.939C57.2585 106.939 55.8094 108.388 55.8094 110.169V126.879C55.8094 127.032 55.6855 127.157 55.531 127.157Z" fill="#1174DC"/>
<path fill-rule="evenodd" clip-rule="evenodd" d="M100.448 137.946H59.0396C57.1012 137.946 55.531 136.375 55.531 134.438V132.339" fill="white"/>
<path fill-rule="evenodd" clip-rule="evenodd" d="M100.448 138.224H59.0396C56.9515 138.224 55.2534 136.525 55.2534 134.437V132.339C55.2534 132.186 55.3772 132.061 55.531 132.061C55.6849 132.061 55.8094 132.186 55.8094 132.339V134.437C55.8094 136.218 57.2585 137.667 59.0396 137.667H100.448C100.602 137.667 100.726 137.792 100.726 137.946C100.726 138.099 100.602 138.224 100.448 138.224Z" fill="#1174DC"/>
<path fill-rule="evenodd" clip-rule="evenodd" d="M79.7986 106.66H121.557V134.438C121.557 136.375 119.987 137.946 118.049 137.946H89.4381" fill="white"/>
<path fill-rule="evenodd" clip-rule="evenodd" d="M118.049 138.224H89.4382C89.2844 138.224 89.1598 138.099 89.1598 137.946C89.1598 137.792 89.2844 137.667 89.4382 137.667H118.049C119.83 137.667 121.279 136.218 121.279 134.437V106.938H79.798C79.6441 106.938 79.5203 106.814 79.5203 106.66C79.5203 106.506 79.6441 106.382 79.798 106.382H121.557C121.712 106.382 121.836 106.506 121.836 106.66V134.437C121.836 136.525 120.137 138.224 118.049 138.224Z" fill="#1174DC"/>
<path fill-rule="evenodd" clip-rule="evenodd" d="M69.8451 74.1673C71.0199 74.172 71.9748 75.1365 71.9666 76.3085C71.9584 77.4832 70.9933 78.4402 69.8247 78.434C68.6398 78.4272 67.691 77.4669 67.6985 76.2799C67.7046 75.1051 68.6629 74.1625 69.8451 74.1673Z" fill="#1174DC"/>
<path fill-rule="evenodd" clip-rule="evenodd" d="M68.1968 80.8685L67.751 83.3433C67.6135 84.1069 66.9486 84.6623 66.172 84.6623H63.0792C62.1938 84.6623 61.475 85.381 61.475 86.2672V91.3214C61.475 92.2076 62.1938 92.9257 63.0792 92.9257C63.9654 92.9257 64.6835 92.2076 64.6835 91.3214V88.6704C64.6835 88.2287 65.0415 87.8714 65.4832 87.8714H68.8543C69.6302 87.8714 70.2958 87.3153 70.4333 86.5517L71.3549 81.4375C71.5318 80.4534 70.7757 79.5488 69.7758 79.5488C68.9999 79.5488 68.3343 80.1042 68.1968 80.8685Z" fill="#1174DC"/>
<mask id="mask3" mask-type="alpha" maskUnits="userSpaceOnUse" x="18" y="16" width="144" height="128">
<path fill-rule="evenodd" clip-rule="evenodd" d="M18 143.969H161.553V16H18V143.969Z" fill="white"/>
</mask>
<g mask="url(#mask3)">
<path fill-rule="evenodd" clip-rule="evenodd" d="M79.7986 77.693H103.782V75.2339H79.7986V77.693Z" fill="#DDDDDD"/>
<path fill-rule="evenodd" clip-rule="evenodd" d="M79.7986 84.5843H116.161V82.1252H79.7986V84.5843Z" fill="#DDDDDD"/>
<path fill-rule="evenodd" clip-rule="evenodd" d="M79.7986 91.4757H104.644V89.0166H79.7986V91.4757Z" fill="#DDDDDD"/>
<path fill-rule="evenodd" clip-rule="evenodd" d="M79.7986 116.641H98.6686V114.182H79.7986V116.641Z" fill="#DDDDDD"/>
<path fill-rule="evenodd" clip-rule="evenodd" d="M79.7986 123.533H107.415V121.074H79.7986V123.533Z" fill="#DDDDDD"/>
<path fill-rule="evenodd" clip-rule="evenodd" d="M79.7986 130.425H98.6686V127.965H79.7986V130.425Z" fill="#DDDDDD"/>
<path fill-rule="evenodd" clip-rule="evenodd" d="M55.8028 143.969C52.4249 143.969 49.6766 141.22 49.6766 137.842C49.6766 137.689 49.8018 137.564 49.955 137.564C50.1088 137.564 50.2333 137.689 50.2333 137.842C50.2333 140.914 52.7319 143.413 55.8028 143.413C55.9567 143.413 56.0812 143.536 56.0812 143.69C56.0812 143.843 55.9567 143.969 55.8028 143.969Z" fill="#1174DC"/>
<path fill-rule="evenodd" clip-rule="evenodd" d="M121.057 143.969H109.553C109.399 143.969 109.274 143.843 109.274 143.69C109.274 143.537 109.399 143.413 109.553 143.413H121.057C124.128 143.413 126.627 140.914 126.627 137.842V130.625C126.627 130.471 126.751 130.346 126.905 130.346C127.058 130.346 127.183 130.471 127.183 130.625V137.842C127.183 141.22 124.435 143.969 121.057 143.969Z" fill="#1174DC"/>
<path fill-rule="evenodd" clip-rule="evenodd" d="M126.905 122.581C126.751 122.581 126.627 122.456 126.627 122.303V106.659C126.627 106.506 126.751 106.382 126.905 106.382C127.058 106.382 127.183 106.506 127.183 106.659V122.303C127.183 122.456 127.058 122.581 126.905 122.581Z" fill="#1174DC"/>
<path fill-rule="evenodd" clip-rule="evenodd" d="M120 59.5948C118.361 61.2337 115.704 61.2337 114.064 59.5948C112.426 57.9559 112.426 55.2987 114.064 53.6591C115.704 52.0202 118.361 52.0202 120 53.6591C121.639 55.2987 121.639 57.9559 120 59.5948Z" fill="white"/>
<path fill-rule="evenodd" clip-rule="evenodd" d="M111.092 64.0881C110.863 64.0881 110.633 64.0037 110.454 63.8335C110.082 63.481 110.066 62.8943 110.42 62.522L115.665 56.9933C116.017 56.6217 116.605 56.6067 116.976 56.9586C117.348 57.3119 117.363 57.8986 117.01 58.2702L111.765 63.7988C111.583 63.9907 111.337 64.0881 111.092 64.0881Z" fill="white"/>
<path fill-rule="evenodd" clip-rule="evenodd" d="M117.033 52.8034C116.053 52.8034 115.073 53.1764 114.327 53.9223C112.836 55.4136 112.836 57.8407 114.327 59.3332C115.82 60.8238 118.245 60.8238 119.738 59.3332C121.23 57.8407 121.23 55.4136 119.738 53.9223C118.992 53.1764 118.012 52.8034 117.033 52.8034ZM117.032 61.1929C115.862 61.1929 114.693 60.7485 113.803 59.8575C112.022 58.0764 112.022 55.1783 113.803 53.3971C115.583 51.6166 118.482 51.6166 120.263 53.3971C122.043 55.1783 122.043 58.0764 120.263 59.8575C119.372 60.7485 118.202 61.1929 117.032 61.1929Z" fill="#1174DC"/>
<path fill-rule="evenodd" clip-rule="evenodd" d="M66.8609 112.211C68.0349 112.215 68.9905 113.18 68.9823 114.352C68.9735 115.527 68.0091 116.483 66.8404 116.477C65.6555 116.47 64.7067 115.51 64.7135 114.324C64.7203 113.148 65.6786 112.206 66.8609 112.211Z" fill="#1174DC"/>
<path fill-rule="evenodd" clip-rule="evenodd" d="M66.8476 132.395C65.5007 132.395 64.4096 131.303 64.4096 129.956V120.667C64.4096 119.319 65.5007 118.228 66.8476 118.228C68.1945 118.228 69.2863 119.319 69.2863 120.667V129.956C69.2863 131.303 68.1945 132.395 66.8476 132.395Z" fill="#1174DC"/>
<path fill-rule="evenodd" clip-rule="evenodd" d="M70.9858 120.465C71.2294 120.847 71.6521 121.079 72.1061 121.079H74.6223V122.779H72.362C71.1117 122.779 69.9288 122.21 69.1481 121.234L66.7476 118.231C68.4566 118.172 70.0683 119.022 70.9858 120.465Z" fill="#1174DC"/>
</g>
</svg>
