<svg width="20" height="16" viewBox="0 0 20 16" fill="none" xmlns="http://www.w3.org/2000/svg">
<g clip-path="url(#clip0)">
<path d="M19.8125 14.7188L1.125 0.109688C1.07374 0.0686496 1.01491 0.038109 0.951846 0.0198098C0.888787 0.00151062 0.822741 -0.00418892 0.757478 0.00303664C0.692216 0.0102622 0.629016 0.0302714 0.571487 0.0619217C0.513958 0.093572 0.463226 0.136244 0.422188 0.1875L0.109688 0.577813C0.0685533 0.629087 0.0379332 0.687969 0.0195795 0.75109C0.0012258 0.81421 -0.00450123 0.880331 0.00272612 0.945667C0.00995347 1.011 0.0299933 1.07427 0.061699 1.13186C0.0934047 1.18944 0.136154 1.24021 0.1875 1.28125L18.875 15.8903C18.9263 15.9314 18.9851 15.9619 19.0482 15.9802C19.1112 15.9985 19.1773 16.0042 19.2425 15.997C19.3078 15.9897 19.371 15.9697 19.4285 15.9381C19.486 15.9064 19.5368 15.8638 19.5778 15.8125L19.8903 15.4222C19.9314 15.3709 19.9621 15.312 19.9804 15.2489C19.9988 15.1858 20.0045 15.1197 19.9973 15.0543C19.99 14.989 19.97 14.9257 19.9383 14.8681C19.9066 14.8106 19.8638 14.7598 19.8125 14.7188V14.7188ZM9.27469 4.57719L13.4869 7.87031C13.4175 5.99719 11.89 4.5 10 4.5C9.7562 4.50046 9.51312 4.52633 9.27469 4.57719ZM10.7253 11.4231L6.51312 8.13C6.58281 10.0028 8.11031 11.5 10 11.5C10.2438 11.4995 10.4868 11.4737 10.7253 11.4231V11.4231ZM10 3.5C13.0828 3.5 15.9091 5.21875 17.4353 8C17.0612 8.68449 16.5989 9.31697 16.0603 9.88125L17.2397 10.8031C17.8963 10.1007 18.4526 9.31081 18.8928 8.45594C18.9643 8.31453 19.0015 8.1583 19.0015 7.99984C19.0015 7.84139 18.9643 7.68516 18.8928 7.54375C17.1966 4.23719 13.8416 2 10 2C8.85312 2 7.75906 2.21875 6.73031 2.58781L8.18062 3.72188C8.7725 3.5875 9.37875 3.5 10 3.5ZM10 12.5C6.91719 12.5 4.09125 10.7812 2.56469 8C2.93931 7.31552 3.40211 6.68314 3.94125 6.11906L2.76188 5.19719C2.10536 5.89952 1.54915 6.6893 1.10906 7.54406C1.03758 7.68547 1.00033 7.8417 1.00033 8.00016C1.00033 8.15861 1.03758 8.31484 1.10906 8.45625C2.80375 11.7628 6.15875 14 10 14C11.1469 14 12.2409 13.7797 13.2697 13.4122L11.8194 12.2784C11.2275 12.4125 10.6216 12.5 10 12.5Z" fill="#DDDDDD"/>
</g>
<defs>
<clipPath id="clip0">
<rect width="20" height="16" fill="white"/>
</clipPath>
</defs>
</svg>
