<svg width="20" height="18" viewBox="0 0 20 18" fill="none" xmlns="http://www.w3.org/2000/svg">
<path d="M10 5.00001C9.63199 5.00576 9.2667 5.06422 8.91527 5.17362C9.07783 5.45949 9.16438 5.78227 9.16666 6.11112C9.16666 6.36647 9.11637 6.61931 9.01865 6.85522C8.92093 7.09114 8.77771 7.30549 8.59715 7.48605C8.41659 7.66661 8.20224 7.80983 7.96633 7.90755C7.73041 8.00527 7.47757 8.05556 7.22222 8.05556C6.89337 8.05328 6.57059 7.96673 6.28472 7.80417C6.05917 8.58639 6.08546 9.41975 6.35986 10.1862C6.63425 10.9527 7.14285 11.6133 7.8136 12.0747C8.48435 12.536 9.28325 12.7746 10.0971 12.7567C10.911 12.7388 11.6986 12.4652 12.3484 11.9748C12.9982 11.4843 13.4772 10.8019 13.7176 10.0241C13.958 9.24631 13.9475 8.4126 13.6877 7.64107C13.428 6.86954 12.932 6.19931 12.2702 5.7253C11.6083 5.2513 10.8141 4.99755 10 5.00001V5.00001ZM19.8792 8.38195C17.9962 4.70799 14.2684 2.22223 10 2.22223C5.73159 2.22223 2.00277 4.70973 0.12083 8.3823C0.0413997 8.53942 1.52588e-05 8.71301 1.52588e-05 8.88907C1.52588e-05 9.06513 0.0413997 9.23872 0.12083 9.39584C2.00382 13.0698 5.73159 15.5556 10 15.5556C14.2684 15.5556 17.9972 13.0681 19.8792 9.39549C19.9586 9.23837 20 9.06478 20 8.88872C20 8.71266 19.9586 8.53907 19.8792 8.38195V8.38195ZM10 13.8889C6.57465 13.8889 3.43437 11.9792 1.73854 8.8889C3.43437 5.79862 6.5743 3.8889 10 3.8889C13.4257 3.8889 16.5656 5.79862 18.2615 8.8889C16.566 11.9792 13.4257 13.8889 10 13.8889Z" fill="#DDDDDD"/>
</svg>
