<svg width="24" height="24" viewBox="0 0 24 24" fill="none" xmlns="http://www.w3.org/2000/svg">
<path d="M20.0002 12C20.0002 11.4477 19.5525 11 19.0002 11H8.07167C7.98258 11 7.93796 10.8923 8.00095 10.8293L12.7106 6.11961C13.1021 5.72811 13.1006 5.09262 12.7077 4.70251C12.3168 4.31434 11.6852 4.31506 11.2956 4.70461L4.70735 11.2929C4.31683 11.6834 4.31683 12.3166 4.70735 12.7071L11.2949 19.2947C11.6845 19.6842 12.316 19.6842 12.7056 19.2947C13.0948 18.9054 13.0951 18.2743 12.7062 17.8847L8.00059 13.1706C7.93768 13.1076 7.98231 13 8.07136 13H19.0002C19.5525 13 20.0002 12.5523 20.0002 12Z" fill="white"/>
</svg>
