<svg width="24" height="24" viewBox="0 0 24 24" fill="none" xmlns="http://www.w3.org/2000/svg">
<path d="M6 10.8125C6 10.5312 6.21875 10.3125 6.5 10.3125H11V7.375C11 7.15625 11.25 7.03125 11.4062 7.1875L15.9062 11.6562C16.0938 11.8438 16.0938 12.1562 15.9062 12.375L11.4062 16.8438C11.25 17 11 16.875 11 16.6562V13.7188H6.5C6.21875 13.7188 6 13.5 6 13.2188V10.8125ZM5 10.8125V13.2188C5 14.0625 5.65625 14.7188 6.5 14.7188H10V16.6562C10 17.7812 11.3438 18.3438 12.125 17.5312L16.5938 13.0625C17.1875 12.5 17.1875 11.5312 16.5938 10.9375L12.125 6.46875C11.3438 5.6875 10 6.25 10 7.375V9.3125H6.5C5.65625 9.3125 5 9.96875 5 10.8125ZM18.625 6H18.375C18.1562 6 18 6.1875 18 6.375V17.625C18 17.8438 18.1562 18 18.375 18H18.625C18.8125 18 19 17.8438 19 17.625V6.375C19 6.1875 18.8125 6 18.625 6Z" fill="#222222"/>
</svg>
