<svg width="24" height="24" viewBox="0 0 24 24" fill="none" xmlns="http://www.w3.org/2000/svg">
<path d="M5 17.625C5 17.8438 5.15625 18 5.375 18H5.625C5.8125 18 6 17.8438 6 17.625V6.375C6 6.1875 5.8125 6 5.625 6H5.375C5.15625 6 5 6.1875 5 6.375V17.625ZM8 10.8125C8 10.5312 8.21875 10.3125 8.5 10.3125H13V7.375C13 7.15625 13.25 7.03125 13.4062 7.1875L17.8438 11.6562C18.0312 11.8438 18.0312 12.1562 17.8438 12.375L13.4062 16.8438C13.25 17 13 16.875 13 16.6562V13.7188H8.5C8.21875 13.7188 8 13.5 8 13.2188V10.8125ZM7 10.8125V13.2188C7 14.0625 7.65625 14.7188 8.5 14.7188H12V16.6562C12 17.7812 13.3438 18.3438 14.125 17.5625L18.5312 13.0625C19.125 12.5 19.125 11.5312 18.5312 10.9375L14.125 6.46875C13.3438 5.6875 12 6.25 12 7.375V9.3125H8.5C7.65625 9.3125 7 9.96875 7 10.8125Z" fill="#222222"/>
</svg>
