<svg width="16" height="16" viewBox="0 0 16 16" fill="none" xmlns="http://www.w3.org/2000/svg">
<path d="M16 8C16 7.44772 15.5523 7 15 7H4.07142C3.98233 7 3.93771 6.89229 4.00071 6.82929L8.71039 2.11961C9.10189 1.72811 9.10037 1.09262 8.70749 0.702509C8.31657 0.314339 7.68494 0.315064 7.29539 0.704613L0.707106 7.29289C0.316582 7.68342 0.316583 8.31658 0.707107 8.70711L7.29468 15.2947C7.68422 15.6842 8.31578 15.6842 8.70532 15.2947C9.0946 14.9054 9.09489 14.2743 8.70595 13.8847L4.00034 9.17065C3.93743 9.10763 3.98207 9 4.07112 9H15C15.5523 9 16 8.55229 16 8Z" fill="#222222"/>
</svg>
