<svg width="16" height="20" viewBox="0 0 16 20" fill="none" xmlns="http://www.w3.org/2000/svg">
<path d="M11.5971 4.75813C10.1126 4.75813 8.90722 5.659 8.13323 5.659C7.30849 5.659 6.22998 4.80888 4.93577 4.80888C2.48692 4.80888 0 6.83902 0 10.6582C0 13.0436 0.913561 15.5559 2.05551 17.18C3.03251 18.5504 3.88263 19.6796 5.1134 19.6796C6.33148 19.6796 6.86439 18.8676 8.37431 18.8676C9.9096 18.8676 10.2522 19.6542 11.5971 19.6542C12.9294 19.6542 13.8176 18.4362 14.655 17.2308C15.594 15.8477 15.9873 14.5028 16 14.4393C15.9239 14.414 13.3735 13.3735 13.3735 10.4552C13.3735 7.93021 15.3783 6.80095 15.4925 6.71213C14.1729 4.80888 12.1554 4.75813 11.5971 4.75813ZM10.8993 3.14671C11.5083 2.41078 11.9397 1.40841 11.9397 0.393339C11.9397 0.253767 11.927 0.114195 11.9017 0C10.912 0.038065 9.71927 0.659794 9.00872 1.49722C8.45044 2.13164 7.93021 3.14671 7.93021 4.16178C7.93021 4.31404 7.95559 4.4663 7.96828 4.51705C8.03172 4.52974 8.13323 4.54243 8.23473 4.54243C9.12292 4.54243 10.2395 3.94607 10.8993 3.14671Z" fill="white"/>
</svg>
