<svg width="26" height="26" viewBox="0 0 26 26" fill="none" xmlns="http://www.w3.org/2000/svg">
<path d="M16.5971 7.75813C15.1126 7.75813 13.9072 8.659 13.1332 8.659C12.3085 8.659 11.23 7.80888 9.93577 7.80888C7.48692 7.80888 5 9.83902 5 13.6582C5 16.0436 5.91356 18.5559 7.05551 20.18C8.03251 21.5504 8.88263 22.6796 10.1134 22.6796C11.3315 22.6796 11.8644 21.8676 13.3743 21.8676C14.9096 21.8676 15.2522 22.6542 16.5971 22.6542C17.9294 22.6542 18.8176 21.4362 19.655 20.2308C20.594 18.8477 20.9873 17.5028 21 17.4393C20.9239 17.414 18.3735 16.3735 18.3735 13.4552C18.3735 10.9302 20.3783 9.80095 20.4925 9.71213C19.1729 7.80888 17.1554 7.75813 16.5971 7.75813ZM15.8993 6.14671C16.5083 5.41078 16.9397 4.40841 16.9397 3.39334C16.9397 3.25377 16.927 3.1142 16.9017 3C15.912 3.03807 14.7193 3.65979 14.0087 4.49722C13.4504 5.13164 12.9302 6.14671 12.9302 7.16178C12.9302 7.31404 12.9556 7.4663 12.9683 7.51705C13.0317 7.52974 13.1332 7.54243 13.2347 7.54243C14.1229 7.54243 15.2395 6.94607 15.8993 6.14671Z" fill="white"/>
</svg>
