<svg width="7" height="12" viewBox="0 0 7 12" fill="none" xmlns="http://www.w3.org/2000/svg">
<path opacity="0.6" d="M0.661417 0.081448C0.716535 0.0271493 0.790026 0 0.88189 0C0.973753 0 1.05643 0.0271493 1.12992 0.081448L6.88976 5.78281C6.96325 5.8371 7 5.9095 7 6C7 6.0905 6.96325 6.1629 6.88976 6.21719L1.12992 11.9186C1.05643 11.9729 0.973753 12 0.88189 12C0.790026 12 0.716535 11.9729 0.661417 11.9186L0.110236 11.3756C0.0367453 11.3213 0 11.2489 0 11.1584C0 11.0679 0.0367453 10.9864 0.110236 10.914L5.09842 6L0.110236 1.08597C0.0367453 1.01357 0 0.932127 0 0.841629C0 0.751131 0.0367453 0.678733 0.110236 0.624434L0.661417 0.081448Z" fill="#222222"/>
</svg>
