<svg width="11" height="10" viewBox="0 0 11 10" fill="none" xmlns="http://www.w3.org/2000/svg">
<path d="M5.37109 0.212891L4.94141 0.621094C4.83398 0.728516 4.83398 0.900391 4.94141 0.986328L8.27148 4.31641H0.945312C0.794922 4.31641 0.6875 4.44531 0.6875 4.57422V5.17578C0.6875 5.32617 0.794922 5.43359 0.945312 5.43359H8.27148L4.94141 8.78516C4.83398 8.87109 4.83398 9.04297 4.94141 9.15039L5.37109 9.55859C5.45703 9.66602 5.62891 9.66602 5.73633 9.55859L10.2266 5.06836C10.334 4.96094 10.334 4.81055 10.2266 4.70312L5.73633 0.212891C5.62891 0.105469 5.45703 0.105469 5.37109 0.212891Z" fill="#222222"/>
</svg>
