<svg width="26" height="26" viewBox="0 0 26 26" fill="none" xmlns="http://www.w3.org/2000/svg">
<rect x="0.5" y="0.5" width="25" height="25" fill="white" stroke="#DDDDDD"/>
<path d="M17.9219 8.01953C17.9766 7.96484 18.0312 7.9375 18.1406 7.9375C18.2227 7.9375 18.3047 7.96484 18.3867 8.01953L19.1523 8.8125C19.207 8.86719 19.2617 8.94922 19.2617 9.03125C19.2617 9.14062 19.207 9.22266 19.1523 9.27734L10.9492 17.4805C10.8945 17.5352 10.8125 17.5625 10.7305 17.5625C10.6211 17.5625 10.5391 17.5352 10.4844 17.4805L6.84766 13.8164C6.76562 13.7617 6.73828 13.707 6.73828 13.5977C6.73828 13.5156 6.76562 13.4336 6.84766 13.3516L7.61328 12.5859C7.66797 12.5312 7.75 12.4766 7.85938 12.4766C7.94141 12.4766 8.02344 12.5312 8.07812 12.5859L10.7305 15.2383L17.9219 8.01953Z" fill="white"/>
</svg>
