<svg width="182" height="182" viewBox="0 0 182 182" fill="none" xmlns="http://www.w3.org/2000/svg">
<g clip-path="url(#clip0)">
<path d="M56.7144 159.315H126.679C151.542 146.587 168.555 120.708 168.555 90.859C168.559 48.4126 134.147 14 91.6965 14C49.246 14 14.8375 48.4126 14.8375 90.859C14.8375 120.712 31.8554 146.587 56.7144 159.315Z" fill="#F2F2F2"/>
<path d="M140.793 159.397H41.2069C41.0928 159.397 41 159.291 41 159.16C41 159.029 41.0928 158.922 41.2069 158.922H140.793C140.907 158.922 141 159.029 141 159.16C141 159.291 140.907 159.397 140.793 159.397Z" fill="#0A67CF"/>
<path d="M132.479 98.3028C132.479 96.8731 133.639 95.7178 135.065 95.7178H183.562C184.992 95.7178 186.147 96.8772 186.147 98.3028C186.147 99.7326 184.987 100.888 183.562 100.888H135.069C133.639 100.892 132.479 99.7326 132.479 98.3028Z" fill="white"/>
<path d="M183.689 101.125H135.196C133.639 101.125 132.373 99.8596 132.373 98.3028C132.373 98.1717 132.48 98.0652 132.611 98.0652C132.742 98.0652 132.848 98.1717 132.848 98.3028C132.848 99.5974 133.901 100.654 135.2 100.654H183.697C184.992 100.654 186.048 99.6015 186.048 98.3028C186.048 97.0083 184.996 95.9513 183.697 95.9513C183.566 95.9513 183.459 95.8448 183.459 95.7137C183.459 95.5826 183.566 95.4761 183.697 95.4761C185.254 95.4761 186.52 96.742 186.52 98.2987C186.511 99.8596 185.246 101.125 183.689 101.125Z" fill="#0A67CF"/>
<path d="M19.6184 38.4207C19.6184 36.991 20.7778 35.8357 22.2034 35.8357H70.7006C72.1304 35.8357 73.2857 36.9951 73.2857 38.4207C73.2857 39.8505 72.1263 41.0058 70.7006 41.0058H22.2034C20.7778 41.0099 19.6184 39.8505 19.6184 38.4207Z" fill="white"/>
<path d="M42.1587 75.9018C44.79 75.9018 46.9232 73.7687 46.9232 71.1373C46.9232 68.5059 44.79 66.3728 42.1587 66.3728C39.5273 66.3728 37.3942 68.5059 37.3942 71.1373C37.3942 73.7687 39.5273 75.9018 42.1587 75.9018Z" fill="#0A67CF"/>
<path d="M42.2242 66.3728C44.8543 66.3728 46.9887 68.5072 46.9887 71.1373L42.2242 66.3728Z" fill="#0A67CF"/>
<path d="M29.4465 98.9828H-22.7624C-22.8935 98.9828 -23 98.8763 -23 98.7452C-23 98.6141 -22.8935 98.5076 -22.7624 98.5076H29.4465C29.5776 98.5076 29.6841 98.6141 29.6841 98.7452C29.6841 98.8763 29.5735 98.9828 29.4465 98.9828Z" fill="#0A67CF"/>
<path d="M61.2249 36.0734H9.01602C8.88493 36.0734 8.77841 35.9669 8.77841 35.8358C8.77841 35.7047 8.88493 35.5981 9.01602 35.5981H61.2249C61.356 35.5981 61.4625 35.7047 61.4625 35.8358C61.4625 35.9669 61.356 36.0734 61.2249 36.0734Z" fill="#0A67CF"/>
<path d="M166.528 23.3282H114.319C114.188 23.3282 114.081 23.2217 114.081 23.0906C114.081 22.9595 114.188 22.853 114.319 22.853H166.528C166.659 22.853 166.765 22.9595 166.765 23.0906C166.765 23.2217 166.659 23.3282 166.528 23.3282Z" fill="#0A67CF"/>
<path d="M204.762 79.0275H152.554C152.422 79.0275 152.316 78.9209 152.316 78.7898C152.316 78.6588 152.422 78.5522 152.554 78.5522H204.762C204.894 78.5522 205 78.6588 205 78.7898C205 78.9209 204.894 79.0275 204.762 79.0275Z" fill="#0A67CF"/>
<path d="M68.6482 41.1654H16.4393C16.3082 41.1654 16.2017 41.0589 16.2017 40.9278C16.2017 40.7967 16.3082 40.6902 16.4393 40.6902H68.6482C68.7793 40.6902 68.8858 40.7967 68.8858 40.9278C68.8858 41.0589 68.7793 41.1654 68.6482 41.1654Z" fill="#0A67CF"/>
<path d="M42.6626 73.9394C45.2939 73.9394 47.4271 71.8063 47.4271 69.1749C47.4271 66.5435 45.2939 64.4104 42.6626 64.4104C40.0312 64.4104 37.898 66.5435 37.898 69.1749C37.898 71.8063 40.0312 73.9394 42.6626 73.9394Z" fill="white"/>
<path d="M47.4926 69.4126C47.3615 69.4126 47.255 69.3061 47.255 69.175C47.255 66.6801 45.223 64.6481 42.7281 64.6481C42.597 64.6481 42.4905 64.5416 42.4905 64.4105C42.4905 64.2794 42.597 64.1729 42.7281 64.1729C45.4852 64.1729 47.7261 66.4138 47.7261 69.1709C47.7261 69.3061 47.6196 69.4126 47.4926 69.4126Z" fill="#0A67CF"/>
<path d="M97.5015 39.5676C100.133 39.5676 102.266 37.4344 102.266 34.8031C102.266 32.1717 100.133 30.0386 97.5015 30.0386C94.8702 30.0386 92.737 32.1717 92.737 34.8031C92.737 37.4344 94.8702 39.5676 97.5015 39.5676Z" fill="#0A67CF"/>
<path d="M97.5671 30.0386C100.197 30.0386 102.332 32.173 102.332 34.8031L97.5671 30.0386Z" fill="#0A67CF"/>
<path d="M156.273 107.905C154.643 108.34 154.291 108.688 153.86 110.318C153.426 108.688 153.078 108.336 151.447 107.905C153.078 107.471 153.43 107.123 153.86 105.492C154.295 107.123 154.643 107.475 156.273 107.905Z" fill="#0A67CF"/>
<path d="M136.277 34.0905C134.647 34.5247 134.294 34.8729 133.864 36.5035C133.43 34.8729 133.082 34.5206 131.451 34.0905C133.082 33.6562 133.434 33.308 133.864 31.6775C134.294 33.308 134.647 33.6603 136.277 34.0905Z" fill="#0A67CF"/>
<path d="M55.9401 87.1924C53.4616 87.8479 52.929 88.3846 52.2694 90.8631C51.6139 88.3846 51.0773 87.852 48.6028 87.1924C51.0814 86.5328 51.6139 86.0003 52.2694 83.5217C52.929 86.0003 53.4616 86.5328 55.9401 87.1924Z" fill="#0A67CF"/>
<path d="M95.9325 35.8151C98.1588 35.8151 99.9637 34.0102 99.9637 31.7839C99.9637 29.5575 98.1588 27.7527 95.9325 27.7527C93.7061 27.7527 91.9013 29.5575 91.9013 31.7839C91.9013 34.0102 93.7061 35.8151 95.9325 35.8151Z" fill="white"/>
<path d="M92.3806 33.9061C92.2905 33.9061 92.2085 33.8569 92.1676 33.7709C91.6555 32.677 91.5981 31.4521 92.0078 30.3173C92.4175 29.1825 93.245 28.273 94.3347 27.761C94.4535 27.7036 94.5928 27.7569 94.6502 27.8757C94.7034 27.9945 94.6543 28.1338 94.5355 28.187C93.5563 28.6458 92.8148 29.4611 92.4502 30.4771C92.0815 31.4931 92.1348 32.5951 92.5936 33.5701C92.6469 33.6889 92.5977 33.8282 92.4789 33.8856C92.4502 33.8979 92.4134 33.9061 92.3806 33.9061Z" fill="#0A67CF"/>
<path d="M96.1578 36.02C96.0349 36.02 95.9325 35.9258 95.9243 35.7988C95.9161 35.6677 96.0144 35.5571 96.1414 35.5489C97.1451 35.4793 98.0587 35.0245 98.7183 34.2666C99.3778 33.5087 99.7056 32.5378 99.6359 31.5341C99.5663 30.5304 99.1116 29.6168 98.3537 28.9573C97.5958 28.2977 96.6289 27.97 95.6211 28.0396C95.5064 28.0478 95.3794 27.9495 95.3712 27.8225C95.363 27.6914 95.4614 27.5808 95.5884 27.5726C96.715 27.4947 97.8088 27.8593 98.6609 28.6049C99.513 29.3465 100.025 30.3788 100.103 31.5054C100.181 32.632 99.8162 33.7259 99.0706 34.578C98.3291 35.4301 97.2967 35.9422 96.1701 36.02C96.1701 36.02 96.1619 36.02 96.1578 36.02Z" fill="#0A67CF"/>
<path d="M135.671 85.2917C136.737 85.2917 137.6 84.4278 137.6 83.3622C137.6 82.2965 136.737 81.4326 135.671 81.4326C134.605 81.4326 133.741 82.2965 133.741 83.3622C133.741 84.4278 134.605 85.2917 135.671 85.2917Z" fill="white"/>
<path d="M135.679 85.4885C135.159 85.4885 134.667 85.3041 134.27 84.96C133.836 84.5831 133.577 84.0587 133.536 83.4893C133.496 82.9198 133.684 82.3627 134.061 81.9325C134.147 81.8342 134.294 81.826 134.393 81.9079C134.491 81.9939 134.499 82.1414 134.417 82.2398C133.811 82.9362 133.881 83.9973 134.581 84.6077C135.278 85.214 136.339 85.1443 136.949 84.4438C137.035 84.3455 137.183 84.3373 137.281 84.4192C137.379 84.5053 137.387 84.6527 137.305 84.7511C136.929 85.1853 136.404 85.4434 135.835 85.4844C135.781 85.4885 135.732 85.4885 135.679 85.4885Z" fill="#0A67CF"/>
<path d="M137.707 83.1737C137.596 83.1737 137.498 83.0958 137.478 82.9811C137.293 81.9979 136.343 81.3465 135.359 81.5309C135.232 81.5554 135.11 81.4694 135.085 81.3424C135.06 81.2154 135.146 81.0925 135.273 81.0679C135.872 80.9573 136.482 81.0843 136.986 81.4284C137.49 81.7726 137.83 82.2929 137.94 82.8951C137.965 83.0221 137.879 83.145 137.752 83.1696C137.736 83.1696 137.723 83.1737 137.707 83.1737Z" fill="#0A67CF"/>
<path d="M121.078 97.9626H62.2V115.865C62.2 128.594 66.9808 140.856 75.6004 150.221V159.156H107.678V150.221C116.293 140.856 121.078 128.59 121.078 115.865V97.9626Z" fill="white"/>
<path d="M107.772 159.389H74.8834V150.311C66.1492 140.884 61.3396 128.655 61.3396 115.861V97.7251H121.312V115.861C121.312 119.512 120.914 123.166 120.128 126.73C120.099 126.857 119.976 126.935 119.845 126.91C119.718 126.882 119.636 126.755 119.665 126.628C120.443 123.096 120.837 119.475 120.837 115.861V98.1962H61.8107V115.861C61.8107 128.565 66.5957 140.708 75.289 150.057L75.3504 150.127V158.918H107.297V150.127L107.358 150.057C109.009 148.279 110.55 146.366 111.926 144.371C112 144.264 112.147 144.235 112.254 144.309C112.36 144.383 112.389 144.53 112.315 144.637C110.943 146.624 109.411 148.533 107.768 150.307V159.389H107.772Z" fill="#0A67CF"/>
<path d="M113.712 141.368C113.671 141.368 113.63 141.359 113.594 141.335C113.479 141.269 113.442 141.126 113.507 141.011C115.191 138.082 116.58 134.968 117.645 131.761C117.686 131.638 117.817 131.572 117.944 131.609C118.067 131.65 118.133 131.785 118.096 131.908C117.022 135.149 115.617 138.291 113.917 141.245C113.876 141.323 113.794 141.368 113.712 141.368Z" fill="#0A67CF"/>
<path d="M63.7444 132.072H54.0597C46.9887 132.072 41.2369 126.321 41.2369 119.25C41.2369 112.179 46.9887 106.427 54.0597 106.427H60.2826C60.4137 106.427 60.5203 106.533 60.5203 106.664C60.5203 106.795 60.4137 106.902 60.2826 106.902H54.0597C47.2509 106.902 41.708 112.445 41.708 119.254C41.708 126.062 47.2509 131.605 54.0597 131.605H63.7444C63.8755 131.605 63.982 131.712 63.982 131.843C63.982 131.974 63.8755 132.072 63.7444 132.072Z" fill="#0A67CF"/>
<path d="M112.582 97.9626V115.865C112.582 128.594 107.801 140.856 99.1812 150.221V159.156H101.594V150.221C110.21 140.856 114.995 128.59 114.995 115.865V97.9626H112.582Z" fill="#F2F2F2"/>
<path d="M101.807 159.389C101.676 159.389 101.57 159.283 101.57 159.151V150.122L101.631 150.053C109.325 141.687 113.077 134.002 114.581 123.526C114.597 123.399 114.72 123.309 114.847 123.325C114.974 123.342 115.064 123.465 115.048 123.592C113.553 134.006 109.665 141.998 102.041 150.302V159.147C102.041 159.283 101.938 159.389 101.807 159.389Z" fill="#0A67CF"/>
<path d="M99.1812 150.454C99.1238 150.454 99.0665 150.434 99.0173 150.389C98.9231 150.299 98.919 150.151 99.0091 150.057C111.803 136.554 111.959 122.244 111.959 122.101C111.959 121.97 112.065 121.863 112.197 121.863C112.328 121.863 112.434 121.97 112.434 122.101C112.434 122.244 112.283 136.738 99.3533 150.38C99.3041 150.43 99.2426 150.454 99.1812 150.454Z" fill="#0A67CF"/>
<path d="M120.451 97.9626H62.2V108.893H120.451V97.9626Z" fill="#0A67CF"/>
<path d="M115.261 116.099C115.13 116.099 115.023 115.992 115.023 115.861V98.1962H112.815V115.861C112.815 115.992 112.709 116.099 112.578 116.099C112.446 116.099 112.34 115.992 112.34 115.861V97.7251H115.49V115.861C115.498 115.992 115.392 116.099 115.261 116.099Z" fill="#0A67CF"/>
<path d="M99.1812 159.389C99.0501 159.389 98.9436 159.283 98.9436 159.152V152.433C98.9436 152.302 99.0501 152.195 99.1812 152.195C99.3123 152.195 99.4188 152.302 99.4188 152.433V159.152C99.4188 159.283 99.3123 159.389 99.1812 159.389Z" fill="#0A67CF"/>
<path d="M76.2599 91.4736C75.9199 91.4736 75.6454 91.1991 75.6454 90.8591V79.1997C75.6454 78.8597 75.9199 78.5852 76.2599 78.5852C76.6 78.5852 76.8744 78.8597 76.8744 79.1997V90.8591C76.8744 91.1991 76.6 91.4736 76.2599 91.4736Z" fill="#0A67CF"/>
<path d="M76.2599 77.5978C76.5857 77.5978 76.8499 77.3337 76.8499 77.0079C76.8499 76.6821 76.5857 76.418 76.2599 76.418C75.9341 76.418 75.67 76.6821 75.67 77.0079C75.67 77.3337 75.9341 77.5978 76.2599 77.5978Z" fill="#0A67CF"/>
<path d="M76.2599 74.009C76.5857 74.009 76.8499 73.7448 76.8499 73.419C76.8499 73.0932 76.5857 72.8291 76.2599 72.8291C75.9341 72.8291 75.67 73.0932 75.67 73.419C75.67 73.7448 75.9341 74.009 76.2599 74.009Z" fill="#0A67CF"/>
<path d="M103.868 91.4736C103.528 91.4736 103.253 91.1991 103.253 90.8591V79.1997C103.253 78.8597 103.528 78.5852 103.868 78.5852C104.208 78.5852 104.482 78.8597 104.482 79.1997V90.8591C104.482 91.1991 104.208 91.4736 103.868 91.4736Z" fill="#0A67CF"/>
<path d="M103.868 77.5978C104.194 77.5978 104.458 77.3337 104.458 77.0079C104.458 76.6821 104.194 76.418 103.868 76.418C103.542 76.418 103.278 76.6821 103.278 77.0079C103.278 77.3337 103.542 77.5978 103.868 77.5978Z" fill="#0A67CF"/>
<path d="M103.868 74.009C104.194 74.009 104.458 73.7448 104.458 73.419C104.458 73.0932 104.194 72.8291 103.868 72.8291C103.542 72.8291 103.278 73.0932 103.278 73.419C103.278 73.7448 103.542 74.009 103.868 74.009Z" fill="#0A67CF"/>
<path d="M86.0634 91.4735C85.7234 91.4735 85.4489 91.199 85.4489 90.859V63.46C85.4489 63.1199 85.7234 62.8455 86.0634 62.8455C86.4035 62.8455 86.678 63.1199 86.678 63.46V90.859C86.678 91.199 86.4035 91.4735 86.0634 91.4735Z" fill="#0A67CF"/>
<path d="M86.0634 60.3137C86.3892 60.3137 86.6534 60.0495 86.6534 59.7237C86.6534 59.3979 86.3892 59.1338 86.0634 59.1338C85.7376 59.1338 85.4735 59.3979 85.4735 59.7237C85.4735 60.0495 85.7376 60.3137 86.0634 60.3137Z" fill="#0A67CF"/>
<path d="M86.0634 56.7248C86.3892 56.7248 86.6534 56.4607 86.6534 56.1348C86.6534 55.809 86.3892 55.5449 86.0634 55.5449C85.7376 55.5449 85.4735 55.809 85.4735 56.1348C85.4735 56.4607 85.7376 56.7248 86.0634 56.7248Z" fill="#0A67CF"/>
<path d="M95.4245 91.4735C95.0845 91.4735 94.81 91.199 94.81 90.859V63.46C94.81 63.1199 95.0845 62.8455 95.4245 62.8455C95.7645 62.8455 96.039 63.1199 96.039 63.46V90.859C96.039 91.199 95.7604 91.4735 95.4245 91.4735Z" fill="#0A67CF"/>
<path d="M95.4245 60.3137C95.7503 60.3137 96.0144 60.0495 96.0144 59.7237C96.0144 59.3979 95.7503 59.1338 95.4245 59.1338C95.0987 59.1338 94.8346 59.3979 94.8346 59.7237C94.8346 60.0495 95.0987 60.3137 95.4245 60.3137Z" fill="#0A67CF"/>
<path d="M95.4245 56.7248C95.7503 56.7248 96.0144 56.4607 96.0144 56.1348C96.0144 55.809 95.7503 55.5449 95.4245 55.5449C95.0987 55.5449 94.8346 55.809 94.8346 56.1348C94.8346 56.4607 95.0987 56.7248 95.4245 56.7248Z" fill="#0A67CF"/>
</g>
<defs>
<clipPath id="clip0">
<rect width="182" height="182" fill="white"/>
</clipPath>
</defs>
</svg>
