<svg width="14" height="14" viewBox="0 0 14 14" fill="none" xmlns="http://www.w3.org/2000/svg">
<path fill-rule="evenodd" clip-rule="evenodd" d="M13.8129 0.197355C13.6879 0.0661107 13.5282 0.000488281 13.3337 0.000488281H11.3338C11.1394 0.000488281 10.9797 0.0661107 10.8547 0.197355C10.7297 0.3286 10.6672 0.496302 10.6672 0.70046V13.3C10.6672 13.5041 10.7297 13.6718 10.8547 13.8031C10.9797 13.9343 11.1394 13.9999 11.3338 13.9999H13.3337C13.5282 13.9999 13.6879 13.9343 13.8129 13.8031C13.9379 13.6718 14.0004 13.5041 14.0004 13.3V0.70046C14.0004 0.496302 13.9379 0.3286 13.8129 0.197355ZM8.00039 4.20062C8.19482 4.20062 8.35454 4.26625 8.47953 4.39749C8.60453 4.52874 8.66703 4.69644 8.66703 4.9006V13.3003C8.66703 13.5044 8.60453 13.6721 8.47953 13.8034C8.35454 13.9346 8.19482 14.0002 8.00039 14.0002H6.00047C5.80603 14.0002 5.64631 13.9346 5.52132 13.8034C5.39632 13.6721 5.33383 13.5044 5.33383 13.3003V4.9006C5.33383 4.69644 5.39632 4.52874 5.52132 4.39749C5.64631 4.26625 5.80603 4.20062 6.00047 4.20062H8.00039ZM2.66705 8.40076C2.86149 8.40076 3.0212 8.46638 3.1462 8.59763C3.27119 8.72887 3.33369 8.89657 3.33369 9.10073V13.3006C3.33369 13.5047 3.27119 13.6724 3.1462 13.8037C3.0212 13.9349 2.86149 14.0005 2.66705 14.0005H0.667128C0.472691 14.0005 0.312976 13.9349 0.187981 13.8037C0.0629858 13.6724 0.000488281 13.5047 0.000488281 13.3006V9.10073C0.000488281 8.89657 0.0629858 8.72887 0.187981 8.59763C0.312976 8.46638 0.472691 8.40076 0.667128 8.40076H2.66705Z" fill="#DDDDDD"/>
</svg>
