<svg width="60" height="60" viewBox="0 0 60 60" fill="none" xmlns="http://www.w3.org/2000/svg">
<mask id="mask0" mask-type="alpha" maskUnits="userSpaceOnUse" x="0" y="0" width="60" height="60">
<path fill-rule="evenodd" clip-rule="evenodd" d="M0.000244141 0.000244141H60V59.5707H0.000244141V0.000244141Z" fill="white"/>
</mask>
<g mask="url(#mask0)">
<path fill-rule="evenodd" clip-rule="evenodd" d="M58.9202 46.5877C58.9202 46.5877 52.5002 57.3887 45.2702 51.0477C42.3042 48.8707 37.8552 41.1297 35.4252 27.6487C35.4252 27.6487 31.5082 3.02466 19.6002 0.604659C11.5562 -1.69934 3.13324 2.77766 0.542244 10.7337L1.62024 12.9747C1.62024 12.9747 8.04324 2.17866 15.2732 8.52466C17.4822 10.1467 20.5112 14.8587 22.9152 22.7247L0.000244141 59.0177H9.78624L24.8932 30.7647C24.9672 31.1487 25.0392 31.5367 25.1102 31.9307C25.1102 31.9307 29.0392 56.5607 40.9432 58.9697C48.9912 61.2687 57.4142 56.7837 60.0002 48.8237L58.9202 46.5877Z" fill="#222222"/>
</g>
</svg>
