<svg width="24" height="24" viewBox="0 0 24 24" fill="none" xmlns="http://www.w3.org/2000/svg">
<path d="M12 24C18.6274 24 24 18.6274 24 12C24 5.37258 18.6274 0 12 0C5.37258 0 0 5.37258 0 12C0 18.6274 5.37258 24 12 24Z" fill="#3A84EE"/>
<path d="M12 12C14.221 12 16 10.2197 16 7.99956C16 5.77943 14.221 4 12 4C9.78022 4 8 5.77943 8 7.99956C8 10.2197 9.78022 12 12 12Z" fill="white"/>
<path d="M5 18.3333C5 15.3878 7.38781 13 10.3333 13H13.6667C16.6122 13 19 15.3878 19 18.3333C19 18.7015 18.7015 19 18.3333 19H5.66667C5.29848 19 5 18.7015 5 18.3333Z" fill="white"/>
</svg>
