<svg width="24" height="24" viewBox="0 0 24 24" fill="none" xmlns="http://www.w3.org/2000/svg">
<path d="M12 24C18.6274 24 24 18.6274 24 12C24 5.37258 18.6274 0 12 0C5.37258 0 0 5.37258 0 12C0 18.6274 5.37258 24 12 24Z" fill="#3A84EE"/>
<path d="M10.4061 20.5H13.5952C14.0065 20.4997 14.3623 20.2217 14.4503 19.8319L14.8112 18.2347C15.0543 18.1311 15.2912 18.0145 15.5209 17.8854C15.7397 17.762 15.9515 17.6273 16.1552 17.4816L17.7655 17.9789C18.1578 18.0999 18.5839 17.9397 18.7897 17.5938L20.3843 14.9138C20.5879 14.5674 20.5177 14.1305 20.2152 13.8606L18.9667 12.7556C19.0235 12.2551 19.0235 11.75 18.9667 11.2494L20.2152 10.1444C20.5177 9.87459 20.5879 9.43766 20.3843 9.0913L18.7897 6.41125C18.5839 6.06544 18.1578 5.90522 17.7655 6.0262L16.1552 6.52345C15.9543 6.37928 15.7451 6.24619 15.5288 6.1248C15.2968 5.99312 15.0573 5.87449 14.8112 5.7695L14.4503 4.16895C14.3626 3.77877 14.0068 3.50042 13.5952 3.5H10.4061C9.99451 3.50042 9.6387 3.77877 9.55103 4.16895L9.19357 5.76865C8.96055 5.86627 8.73303 5.97579 8.51195 6.09675C8.28165 6.22614 8.05905 6.36803 7.84522 6.52175L6.23579 6.0245C5.84329 5.90307 5.4166 6.06334 5.21073 6.40955L3.61619 9.0896C3.4121 9.43616 3.48228 9.87361 3.78528 10.1436L5.03375 11.246C4.97698 11.7466 4.97698 12.2517 5.03375 12.7522L3.78528 13.8573C3.48272 14.1271 3.41257 14.564 3.61619 14.9104L5.21423 17.5887C5.42011 17.935 5.84679 18.0952 6.23929 17.9738L7.84873 17.4766C8.26683 17.7754 8.71788 18.0283 9.19357 18.2305L9.55015 19.8319C9.63825 20.222 9.99444 20.5 10.4061 20.5Z" fill="white"/>
<path d="M9 12C9 13.6569 10.3431 15 12 15C13.656 14.9979 14.9979 13.656 15 12C15 10.3431 13.6569 9 12 9C10.3431 9 9 10.3431 9 12Z" fill="#3A84EE"/>
</svg>
