<svg width="24" height="24" viewBox="0 0 24 24" fill="none" xmlns="http://www.w3.org/2000/svg">
<path d="M12 24C18.6274 24 24 18.6274 24 12C24 5.37258 18.6274 0 12 0C5.37258 0 0 5.37258 0 12C0 18.6274 5.37258 24 12 24Z" fill="white"/>
<path d="M15.25 7.99956C15.25 9.80569 13.8066 11.25 12 11.25C10.1945 11.25 8.75 9.80554 8.75 7.99956C8.75 6.19379 10.1943 4.75 12 4.75C13.8068 4.75 15.25 6.19365 15.25 7.99956Z" stroke="#555555" stroke-width="1.5"/>
<path d="M19.2499 19.25H4.75015C4.77105 16.5402 6.97419 14.35 9.68889 14.35H14.3111C17.0258 14.35 19.229 16.5402 19.2499 19.25Z" stroke="#555555" stroke-width="1.5"/>
</svg>
