<svg width="20" height="20" viewBox="0 0 20 20" fill="none" xmlns="http://www.w3.org/2000/svg">
<path d="M10.8877 4.18774V6.00274" stroke="#222222" stroke-width="1.5" stroke-linecap="round" stroke-linejoin="round"/>
<path d="M10.8877 14.3201V15.8381" stroke="#222222" stroke-width="1.5" stroke-linecap="round" stroke-linejoin="round"/>
<path d="M10.8877 11.7434V8.12769" stroke="#222222" stroke-width="1.5" stroke-linecap="round" stroke-linejoin="round"/>
<path fill-rule="evenodd" clip-rule="evenodd" d="M14.5266 16C15.8931 16 17 14.9069 17 13.5574V11.613C16.0957 11.613 15.3675 10.8938 15.3675 10.0008C15.3675 9.10776 16.0957 8.38779 17 8.38779L16.9992 6.44264C16.9992 5.09309 15.8916 4 14.5258 4H4.47419C3.10842 4 2.00078 5.09309 2.00078 6.44264L2 8.45114C2.90426 8.45114 3.63251 9.10776 3.63251 10.0008C3.63251 10.8938 2.90426 11.613 2 11.613V13.5574C2 14.9069 3.10685 16 4.4734 16H14.5266Z" stroke="#222222" stroke-width="1.5" stroke-linecap="round" stroke-linejoin="round"/>
</svg>
