<svg width="26" height="26" viewBox="0 0 26 26" fill="none" xmlns="http://www.w3.org/2000/svg">
<path d="M22.825 13.3187C22.825 15.2146 22.4187 16.9073 21.6062 18.3968C20.7937 19.8864 19.6494 21.051 18.1734 21.8906C16.6974 22.7302 14.9979 23.15 13.075 23.15C11.2604 23.15 9.58123 22.6963 8.03749 21.789C6.49374 20.8817 5.26822 19.6562 4.36093 18.1125C3.45364 16.5687 3 14.8896 3 13.075C3 11.2604 3.45364 9.58123 4.36093 8.03749C5.26822 6.49374 6.49374 5.26822 8.03749 4.36093C9.58123 3.45364 11.2604 3 13.075 3C15.7021 3 17.95 3.88021 19.8187 5.64062L17.0968 8.28124C16.2302 7.44166 15.1875 6.94062 13.9687 6.77812C12.8312 6.61562 11.7073 6.77812 10.5969 7.26561C9.48644 7.75311 8.59269 8.48436 7.91561 9.45936C7.18436 10.5156 6.81874 11.7208 6.81874 13.075C6.81874 14.2396 7.10312 15.3026 7.67186 16.264C8.24061 17.2255 8.99894 17.9974 9.94686 18.5797C10.8948 19.1619 11.9375 19.4531 13.075 19.4531C14.2937 19.4531 15.3635 19.1823 16.2843 18.6406C17.0156 18.2073 17.625 17.625 18.1125 16.8937C18.4645 16.2979 18.6948 15.7021 18.8031 15.1062H13.075V11.6125H22.6625C22.7708 12.2083 22.825 12.7771 22.825 13.3187Z" fill="white"/>
</svg>
