<svg width="16" height="16" viewBox="0 0 16 16" fill="none" xmlns="http://www.w3.org/2000/svg">
<path d="M14.875 3.75012H8.9375V0.3125C8.9375 0.139938 8.79759 0 8.625 0H1.125C0.952406 0 0.8125 0.139938 0.8125 0.3125V15.6875C0.8125 15.86 0.952406 16 1.125 16H8.625H14.875C15.0476 16 15.1875 15.86 15.1875 15.6875V4.06262C15.1875 3.89003 15.0476 3.75012 14.875 3.75012ZM8.9375 4.37512H14.5625V12.25H8.9375V4.37512ZM3.9375 15.375V12.875H5.8125V15.375H3.9375ZM6.125 12.25H3.625C3.45241 12.25 3.3125 12.3899 3.3125 12.5625V15.375H1.4375V0.625H8.3125V15.375H6.4375V12.5625C6.4375 12.3899 6.29756 12.25 6.125 12.25ZM8.93747 15.375V12.875H14.5625V15.375H8.93747Z" fill="#787676"/>
<path d="M4.56247 2.50006H5.18738C5.35997 2.50006 5.49988 2.36015 5.49988 2.18756V1.56256C5.49988 1.38997 5.35997 1.25006 5.18738 1.25006H4.56247C4.38988 1.25006 4.24997 1.38997 4.24997 1.56256V2.18756C4.24997 2.36015 4.38988 2.50006 4.56247 2.50006Z" fill="#787676"/>
<path d="M4.56247 4.68757H5.18738C5.35997 4.68757 5.49988 4.54766 5.49988 4.37507V3.75006C5.49988 3.57747 5.35997 3.43756 5.18738 3.43756H4.56247C4.38988 3.43756 4.24997 3.57747 4.24997 3.75006V4.37507C4.24997 4.54766 4.38988 4.68757 4.56247 4.68757Z" fill="#787676"/>
<path d="M4.56247 6.87506H5.18738C5.35997 6.87506 5.49988 6.73515 5.49988 6.56256V5.93756C5.49988 5.76497 5.35997 5.62506 5.18738 5.62506H4.56247C4.38988 5.62506 4.24997 5.76497 4.24997 5.93756V6.56256C4.24997 6.73515 4.38988 6.87506 4.56247 6.87506Z" fill="#787676"/>
<path d="M4.56247 9.0625H5.18738C5.35997 9.0625 5.49988 8.92259 5.49988 8.75V8.125C5.49988 7.95241 5.35997 7.8125 5.18738 7.8125H4.56247C4.38988 7.8125 4.24997 7.95241 4.24997 8.125V8.75C4.24997 8.92259 4.38988 9.0625 4.56247 9.0625Z" fill="#787676"/>
<path d="M4.56247 11.25H5.18738C5.35997 11.25 5.49988 11.1101 5.49988 10.9375V10.3125C5.49988 10.1399 5.35997 10 5.18738 10H4.56247C4.38988 10 4.24997 10.1399 4.24997 10.3125V10.9375C4.24997 11.1101 4.38988 11.25 4.56247 11.25Z" fill="#787676"/>
<path d="M2.37506 2.50006H2.99997C3.17256 2.50006 3.31247 2.36015 3.31247 2.18756V1.56256C3.31247 1.38997 3.17256 1.25006 2.99997 1.25006H2.37506C2.20247 1.25006 2.06256 1.38997 2.06256 1.56256V2.18756C2.06256 2.36015 2.20247 2.50006 2.37506 2.50006Z" fill="#787676"/>
<path d="M2.37506 4.68757H2.99997C3.17256 4.68757 3.31247 4.54766 3.31247 4.37507V3.75006C3.31247 3.57747 3.17256 3.43756 2.99997 3.43756H2.37506C2.20247 3.43756 2.06256 3.57747 2.06256 3.75006V4.37507C2.06256 4.54766 2.20247 4.68757 2.37506 4.68757Z" fill="#787676"/>
<path d="M2.37506 6.87506H2.99997C3.17256 6.87506 3.31247 6.73515 3.31247 6.56256V5.93756C3.31247 5.76497 3.17256 5.62506 2.99997 5.62506H2.37506C2.20247 5.62506 2.06256 5.76497 2.06256 5.93756V6.56256C2.06256 6.73515 2.20247 6.87506 2.37506 6.87506Z" fill="#787676"/>
<path d="M2.37506 9.0625H2.99997C3.17256 9.0625 3.31247 8.92259 3.31247 8.75V8.125C3.31247 7.95241 3.17256 7.8125 2.99997 7.8125H2.37506C2.20247 7.8125 2.06256 7.95241 2.06256 8.125V8.75C2.06256 8.92259 2.20247 9.0625 2.37506 9.0625Z" fill="#787676"/>
<path d="M2.37506 11.25H2.99997C3.17256 11.25 3.31247 11.1101 3.31247 10.9375V10.3125C3.31247 10.1399 3.17256 10 2.99997 10H2.37506C2.20247 10 2.06256 10.1399 2.06256 10.3125V10.9375C2.06256 11.1101 2.20247 11.25 2.37506 11.25Z" fill="#787676"/>
<path d="M7.37494 1.25006H6.75003C6.57744 1.25006 6.43753 1.38997 6.43753 1.56256V2.18756C6.43753 2.36015 6.57744 2.50006 6.75003 2.50006H7.37494C7.54753 2.50006 7.68744 2.36015 7.68744 2.18756V1.56256C7.68744 1.38997 7.54753 1.25006 7.37494 1.25006Z" fill="#787676"/>
<path d="M7.37494 3.4375H6.75003C6.57744 3.4375 6.43753 3.57741 6.43753 3.75V4.375C6.43753 4.54759 6.57744 4.6875 6.75003 4.6875H7.37494C7.54753 4.6875 7.68744 4.54759 7.68744 4.375V3.75C7.68744 3.57744 7.54753 3.4375 7.37494 3.4375Z" fill="#787676"/>
<path d="M7.37494 5.625H6.75003C6.57744 5.625 6.43753 5.76491 6.43753 5.9375V6.5625C6.43753 6.73509 6.57744 6.875 6.75003 6.875H7.37494C7.54753 6.875 7.68744 6.73509 7.68744 6.5625V5.9375C7.68744 5.76494 7.54753 5.625 7.37494 5.625Z" fill="#787676"/>
<path d="M7.87074 8H7.24583C7.07324 8 6.93333 8.13991 6.93333 8.3125V8.9375C6.93333 9.11009 7.07324 9.25 7.24583 9.25H7.87074C8.04333 9.25 8.18324 9.11009 8.18324 8.9375V8.3125C8.18324 8.13994 8.04333 8 7.87074 8Z" fill="#787676"/>
<path d="M7.37494 10H6.75003C6.57744 10 6.43753 10.1399 6.43753 10.3125V10.9375C6.43753 11.1101 6.57744 11.25 6.75003 11.25H7.37494C7.54753 11.25 7.68744 11.1101 7.68744 10.9375V10.3125C7.68744 10.1399 7.54753 10 7.37494 10Z" fill="#787676"/>
<path d="M13.1562 5.625H12.5312C12.3587 5.625 12.2188 5.76491 12.2188 5.9375V6.5625C12.2188 6.73509 12.3587 6.875 12.5312 6.875H13.1562C13.3288 6.875 13.4687 6.73509 13.4687 6.5625V5.9375C13.4687 5.76494 13.3287 5.625 13.1562 5.625Z" fill="#787676"/>
<path d="M13.1562 7.8125H12.5312C12.3587 7.8125 12.2188 7.95241 12.2188 8.125V8.75C12.2188 8.92259 12.3587 9.0625 12.5312 9.0625H13.1562C13.3288 9.0625 13.4687 8.92259 13.4687 8.75V8.125C13.4687 7.95244 13.3287 7.8125 13.1562 7.8125Z" fill="#787676"/>
<path d="M13.1562 10H12.5312C12.3587 10 12.2188 10.1399 12.2188 10.3125V10.9375C12.2188 11.1101 12.3587 11.25 12.5312 11.25H13.1562C13.3288 11.25 13.4687 11.1101 13.4687 10.9375V10.3125C13.4687 10.1399 13.3287 10 13.1562 10Z" fill="#787676"/>
<path d="M10.9687 5.625H10.3438C10.1712 5.625 10.0313 5.76491 10.0313 5.9375V6.5625C10.0313 6.73509 10.1712 6.875 10.3438 6.875H10.9687C11.1413 6.875 11.2812 6.73509 11.2812 6.5625V5.9375C11.2812 5.76494 11.1413 5.625 10.9687 5.625Z" fill="#787676"/>
<path d="M10.9687 7.8125H10.3438C10.1712 7.8125 10.0313 7.95241 10.0313 8.125V8.75C10.0313 8.92259 10.1712 9.0625 10.3438 9.0625H10.9687C11.1413 9.0625 11.2812 8.92259 11.2812 8.75V8.125C11.2812 7.95244 11.1413 7.8125 10.9687 7.8125Z" fill="#787676"/>
<path d="M10.9687 10H10.3438C10.1712 10 10.0313 10.1399 10.0313 10.3125V10.9375C10.0313 11.1101 10.1712 11.25 10.3438 11.25H10.9687C11.1413 11.25 11.2812 11.1101 11.2812 10.9375V10.3125C11.2812 10.1399 11.1413 10 10.9687 10Z" fill="#787676"/>
</svg>
