<svg width="41" height="41" viewBox="0 0 41 41" fill="none" xmlns="http://www.w3.org/2000/svg">
<path d="M31.0938 15.4947H22.1875V10.3384C22.1875 10.0795 21.9776 9.86957 21.7187 9.86957H10.4688C10.2099 9.86957 10 10.0795 10 10.3384V33.4008C10 33.6596 10.2099 33.8696 10.4688 33.8696H21.7187H31.0938C31.3526 33.8696 31.5626 33.6596 31.5626 33.4008V15.9635C31.5626 15.7046 31.3526 15.4947 31.0938 15.4947ZM22.1875 16.4323H30.625V28.2444H22.1875V16.4323ZM14.6875 32.932V29.182H17.5V32.932H14.6875ZM17.9688 28.2444H14.2187C13.9598 28.2444 13.7501 28.4544 13.7501 28.7132V32.932H10.9376V10.807H21.2501V32.932H18.4376V28.7132C18.4376 28.4544 18.2277 28.2444 17.9688 28.2444ZM22.1875 32.932V29.182H30.625V32.932H22.1875Z" fill="black"/>
<path d="M15.6249 13.6196H16.5623C16.8212 13.6196 17.0311 13.4097 17.0311 13.1508V12.2132C17.0311 11.9544 16.8212 11.7446 16.5623 11.7446H15.6249C15.366 11.7446 15.1562 11.9544 15.1562 12.2132V13.1508C15.1562 13.4097 15.366 13.6196 15.6249 13.6196Z" fill="black"/>
<path d="M15.6249 16.9008H16.5623C16.8212 16.9008 17.0311 16.691 17.0311 16.4321V15.4945C17.0311 15.2356 16.8212 15.0259 16.5623 15.0259H15.6249C15.366 15.0259 15.1562 15.2356 15.1562 15.4945V16.4321C15.1562 16.691 15.366 16.9008 15.6249 16.9008Z" fill="black"/>
<path d="M15.6249 20.1821H16.5623C16.8212 20.1821 17.0311 19.9723 17.0311 19.7133V18.7758C17.0311 18.517 16.8212 18.307 16.5623 18.307H15.6249C15.366 18.307 15.1562 18.517 15.1562 18.7758V19.7133C15.1562 19.9723 15.366 20.1821 15.6249 20.1821Z" fill="black"/>
<path d="M15.6249 23.4633H16.5623C16.8212 23.4633 17.0311 23.2534 17.0311 22.9945V22.0571C17.0311 21.7982 16.8212 21.5883 16.5623 21.5883H15.6249C15.366 21.5883 15.1562 21.7982 15.1562 22.0571V22.9945C15.1562 23.2534 15.366 23.4633 15.6249 23.4633Z" fill="black"/>
<path d="M15.6249 26.7446H16.5623C16.8212 26.7446 17.0311 26.5347 17.0311 26.2758V25.3384C17.0311 25.0795 16.8212 24.8696 16.5623 24.8696H15.6249C15.366 24.8696 15.1562 25.0795 15.1562 25.3384V26.2758C15.1562 26.5347 15.366 26.7446 15.6249 26.7446Z" fill="black"/>
<path d="M12.3436 13.6196H13.2811C13.54 13.6196 13.7497 13.4097 13.7497 13.1508V12.2132C13.7497 11.9544 13.54 11.7446 13.2811 11.7446H12.3436C12.0848 11.7446 11.875 11.9544 11.875 12.2132V13.1508C11.875 13.4097 12.0848 13.6196 12.3436 13.6196Z" fill="black"/>
<path d="M12.3436 16.9008H13.2811C13.54 16.9008 13.7497 16.691 13.7497 16.4321V15.4945C13.7497 15.2356 13.54 15.0259 13.2811 15.0259H12.3436C12.0848 15.0259 11.875 15.2356 11.875 15.4945V16.4321C11.875 16.691 12.0848 16.9008 12.3436 16.9008Z" fill="black"/>
<path d="M12.3436 20.1821H13.2811C13.54 20.1821 13.7497 19.9723 13.7497 19.7133V18.7758C13.7497 18.517 13.54 18.307 13.2811 18.307H12.3436C12.0848 18.307 11.875 18.517 11.875 18.7758V19.7133C11.875 19.9723 12.0848 20.1821 12.3436 20.1821Z" fill="black"/>
<path d="M12.3436 23.4633H13.2811C13.54 23.4633 13.7497 23.2534 13.7497 22.9945V22.0571C13.7497 21.7982 13.54 21.5883 13.2811 21.5883H12.3436C12.0848 21.5883 11.875 21.7982 11.875 22.0571V22.9945C11.875 23.2534 12.0848 23.4633 12.3436 23.4633Z" fill="black"/>
<path d="M12.3436 26.7446H13.2811C13.54 26.7446 13.7497 26.5347 13.7497 26.2758V25.3384C13.7497 25.0795 13.54 24.8696 13.2811 24.8696H12.3436C12.0848 24.8696 11.875 25.0795 11.875 25.3384V26.2758C11.875 26.5347 12.0848 26.7446 12.3436 26.7446Z" fill="black"/>
<path d="M19.8436 11.7446H18.9061C18.6473 11.7446 18.4375 11.9544 18.4375 12.2132V13.1508C18.4375 13.4097 18.6473 13.6196 18.9061 13.6196H19.8436C20.1025 13.6196 20.3122 13.4097 20.3122 13.1508V12.2132C20.3122 11.9544 20.1025 11.7446 19.8436 11.7446Z" fill="black"/>
<path d="M19.8436 15.0259H18.9061C18.6473 15.0259 18.4375 15.2356 18.4375 15.4945V16.4321C18.4375 16.691 18.6473 16.9008 18.9061 16.9008H19.8436C20.1025 16.9008 20.3122 16.691 20.3122 16.4321V15.4945C20.3122 15.2356 20.1025 15.0259 19.8436 15.0259Z" fill="black"/>
<path d="M19.8436 18.307H18.9061C18.6473 18.307 18.4375 18.517 18.4375 18.7758V19.7133C18.4375 19.9723 18.6473 20.1821 18.9061 20.1821H19.8436C20.1025 20.1821 20.3122 19.9723 20.3122 19.7133V18.7758C20.3122 18.517 20.1025 18.307 19.8436 18.307Z" fill="black"/>
<path d="M20.5867 21.8696H19.6495C19.3906 21.8696 19.1807 22.0795 19.1807 22.3384V23.2758C19.1807 23.5347 19.3906 23.7446 19.6495 23.7446H20.5867C20.8456 23.7446 21.0555 23.5347 21.0555 23.2758V22.3384C21.0555 22.0795 20.8456 21.8696 20.5867 21.8696Z" fill="black"/>
<path d="M19.8436 24.8696H18.9061C18.6473 24.8696 18.4375 25.0795 18.4375 25.3384V26.2758C18.4375 26.5347 18.6473 26.7446 18.9061 26.7446H19.8436C20.1025 26.7446 20.3122 26.5347 20.3122 26.2758V25.3384C20.3122 25.0795 20.1025 24.8696 19.8436 24.8696Z" fill="black"/>
<path d="M28.5155 18.307H27.578C27.3191 18.307 27.1094 18.517 27.1094 18.7758V19.7133C27.1094 19.9723 27.3191 20.1821 27.578 20.1821H28.5155C28.7743 20.1821 28.9843 19.9723 28.9843 19.7133V18.7758C28.9843 18.517 28.7743 18.307 28.5155 18.307Z" fill="black"/>
<path d="M28.5155 21.5883H27.578C27.3191 21.5883 27.1094 21.7982 27.1094 22.0571V22.9945C27.1094 23.2534 27.3191 23.4633 27.578 23.4633H28.5155C28.7743 23.4633 28.9843 23.2534 28.9843 22.9945V22.0571C28.9843 21.7982 28.7743 21.5883 28.5155 21.5883Z" fill="black"/>
<path d="M28.5155 24.8696H27.578C27.3191 24.8696 27.1094 25.0795 27.1094 25.3384V26.2758C27.1094 26.5347 27.3191 26.7446 27.578 26.7446H28.5155C28.7743 26.7446 28.9843 26.5347 28.9843 26.2758V25.3384C28.9843 25.0795 28.7743 24.8696 28.5155 24.8696Z" fill="black"/>
<path d="M25.2342 18.307H24.2968C24.0379 18.307 23.8281 18.517 23.8281 18.7758V19.7133C23.8281 19.9723 24.0379 20.1821 24.2968 20.1821H25.2342C25.4931 20.1821 25.7028 19.9723 25.7028 19.7133V18.7758C25.7028 18.517 25.4931 18.307 25.2342 18.307Z" fill="black"/>
<path d="M25.2342 21.5883H24.2968C24.0379 21.5883 23.8281 21.7982 23.8281 22.0571V22.9945C23.8281 23.2534 24.0379 23.4633 24.2968 23.4633H25.2342C25.4931 23.4633 25.7028 23.2534 25.7028 22.9945V22.0571C25.7028 21.7982 25.4931 21.5883 25.2342 21.5883Z" fill="black"/>
<path d="M25.2342 24.8696H24.2968C24.0379 24.8696 23.8281 25.0795 23.8281 25.3384V26.2758C23.8281 26.5347 24.0379 26.7446 24.2968 26.7446H25.2342C25.4931 26.7446 25.7028 26.5347 25.7028 26.2758V25.3384C25.7028 25.0795 25.4931 24.8696 25.2342 24.8696Z" fill="black"/>
</svg>
