<svg width="14" height="18" viewBox="0 0 14 14" fill="none" xmlns="http://www.w3.org/2000/svg">
<path d="M13.2188 6.40625H7.59375V0.78125C7.59375 0.640625 7.45312 0.5 7.3125 0.5H6.1875C6.01172 0.5 5.90625 0.640625 5.90625 0.78125V6.40625H0.28125C0.105469 6.40625 0 6.54688 0 6.6875V7.8125C0 7.98828 0.105469 8.09375 0.28125 8.09375H5.90625V13.7188C5.90625 13.8945 6.01172 14 6.1875 14H7.3125C7.45312 14 7.59375 13.8945 7.59375 13.7188V8.09375H13.2188C13.3594 8.09375 13.5 7.98828 13.5 7.8125V6.6875C13.5 6.54688 13.3594 6.40625 13.2188 6.40625Z" fill="white"/>
</svg>
