<svg width="41" height="41" viewBox="0 0 41 41" fill="none" xmlns="http://www.w3.org/2000/svg">
<path d="M18.7891 8C15.8813 8 13.5156 10.3657 13.5156 13.2734C13.5156 16.1812 15.8813 18.5469 18.7891 18.5469C21.6968 18.5469 24.0625 16.1812 24.0625 13.2734C24.0625 10.3657 21.6968 8 18.7891 8ZM18.7891 17.375C16.5275 17.375 14.6875 15.535 14.6875 13.2734C14.6875 11.0118 16.5275 9.17187 18.7891 9.17187C21.0507 9.17187 22.8906 11.0118 22.8906 13.2734C22.8906 15.535 21.0507 17.375 18.7891 17.375Z" fill="black"/>
<path d="M20.4232 19.7578H17.1549C14.4517 19.7578 11.7839 21.0059 10 23.682V28H27.5781V23.682C25.7968 21.0098 23.1297 19.7578 20.4232 19.7578ZM26.4063 26.8281H11.1719V24.0405C12.5403 22.0892 14.7638 20.9297 17.155 20.9297H20.4232C22.8144 20.9297 25.0379 22.0892 26.4063 24.0405V26.8281Z" fill="black"/>
</svg>
