<svg width="41" height="41" viewBox="0 0 41 41" fill="none" xmlns="http://www.w3.org/2000/svg">
<path d="M20.7891 10C17.8813 10 15.5156 12.3657 15.5156 15.2734C15.5156 18.1812 17.8813 20.5469 20.7891 20.5469C23.6968 20.5469 26.0625 18.1812 26.0625 15.2734C26.0625 12.3657 23.6968 10 20.7891 10ZM20.7891 19.375C18.5275 19.375 16.6875 17.535 16.6875 15.2734C16.6875 13.0118 18.5275 11.1719 20.7891 11.1719C23.0507 11.1719 24.8906 13.0118 24.8906 15.2734C24.8906 17.535 23.0507 19.375 20.7891 19.375Z" fill="white"/>
<path d="M22.4232 21.7578H19.1549C16.4517 21.7578 13.7839 23.0059 12 25.682V30H29.5781V25.682C27.7968 23.0098 25.1297 21.7578 22.4232 21.7578ZM28.4063 28.8281H13.1719V26.0405C14.5403 24.0892 16.7638 22.9297 19.155 22.9297H22.4232C24.8144 22.9297 27.0379 24.0892 28.4063 26.0405V28.8281Z" fill="white"/>
</svg>
