<svg width="180" height="180" viewBox="0 0 180 180" fill="none" xmlns="http://www.w3.org/2000/svg">
<g clip-path="url(#clip0)">
<rect width="180" height="180" fill="white"/>
<path d="M176.646 141.109C176.646 141.109 157.643 173.496 135.279 154.986C126.337 148.047 112.922 124.911 106.209 84.4351C99.4951 43.9589 93.9125 9.25143 59.2526 2.31265C53.6008 0.393522 47.6379 -0.350208 41.7072 0.124274C35.7765 0.598757 29.9951 2.28208 24.6957 5.07735C19.3963 7.87262 14.6837 11.7246 10.8291 16.4117C6.97444 21.0987 4.05395 26.5281 2.2357 32.3875L5.58925 39.3263C5.58925 39.3263 24.5927 5.78204 46.9562 25.4487C58.1524 37.4316 66.229 52.1557 70.4311 68.2446L0 179.279H29.0707L74.9025 92.5167V95.9861C74.9025 95.9861 87.1988 171.163 121.859 178.109C133.429 181.473 145.796 180.257 156.545 174.696C167.294 169.135 175.654 159.629 179.993 148.034L176.646 141.109Z" fill="#020202"/>
</g>
<defs>
<clipPath id="clip0">
<rect width="180" height="180" fill="white"/>
</clipPath>
</defs>
</svg>
